<svg width="120" height="3322" viewBox="0 0 120 3322" fill="none" xmlns="http://www.w3.org/2000/svg">
<path d="M120 2290H0V2411.27H120V2290Z" fill="#001238"/>
<path d="M15.0957 2335.49H45.0837C45.0837 2329.91 40.6077 2325.39 35.0877 2325.39H15.0957V2335.49Z" fill="#22A2F2"/>
<path d="M15.0957 2315.34H45.0837C45.0837 2309.77 40.6077 2305.24 35.0877 2305.24H15.0957V2315.34Z" fill="#22A2F2"/>
<path d="M15.0957 2375.82H45.0837C45.0837 2370.24 40.6077 2365.72 35.0877 2365.72H15.0957V2375.82Z" fill="#22A2F2"/>
<path d="M15.0957 2355.69H45.0837C45.0837 2350.11 40.6077 2345.59 35.0877 2345.59H15.0957V2355.69Z" fill="#22A2F2"/>
<path d="M15.0957 2396.02H45.0837C45.0837 2390.44 40.6077 2385.92 35.0877 2385.92H15.0957V2396.02Z" fill="#22A2F2"/>
<path d="M104.999 2335.49H75.0115C75.0115 2329.91 79.4875 2325.39 85.0075 2325.39H104.999V2335.49Z" fill="#F4F4F4"/>
<path d="M104.999 2315.34H75.0115C75.0115 2309.77 79.4875 2305.24 85.0075 2305.24H104.999V2315.34Z" fill="#F4F4F4"/>
<path d="M104.999 2375.82H75.0115C75.0115 2370.24 79.4875 2365.72 85.0075 2365.72H104.999V2375.82Z" fill="#F4F4F4"/>
<path d="M104.999 2355.69H75.0115C75.0115 2350.11 79.4875 2345.59 85.0075 2345.59H104.999V2355.69Z" fill="#F4F4F4"/>
<path d="M104.999 2396.02H75.0115C75.0115 2390.44 79.4875 2385.92 85.0075 2385.92H104.999V2396.02Z" fill="#F4F4F4"/>
<path d="M120 2411H0V2532.27H120V2411Z" fill="#001238"/>
<path d="M120 2411V2532.27C116.748 2532.27 113.568 2532 110.46 2531.48C85.0681 2527.33 65.0041 2507.05 60.9001 2481.39C60.8281 2480.95 60.7561 2480.5 60.6961 2480.05C60.3121 2477.3 60.1201 2474.48 60.1201 2471.63C60.1201 2468.77 60.3121 2465.95 60.7081 2463.18C60.7561 2462.73 60.8281 2462.27 60.9121 2461.82C65.0281 2436.19 85.0681 2415.95 110.424 2411.79C113.544 2411.28 116.736 2411 120 2411Z" fill="#F4F4F4"/>
<path d="M120 2411V2445.57L103.128 2462.62C97.2601 2468.54 89.5801 2471.55 81.8761 2471.62C81.8521 2471.62 81.8281 2471.61 81.8041 2471.62H81.4561C81.4321 2471.6 81.4081 2471.62 81.3841 2471.62C73.9201 2471.55 66.4921 2468.73 60.7081 2463.18C60.5161 2463.01 60.3121 2462.82 60.1201 2462.62L60.9121 2461.82L110.424 2411.79L111.204 2411H120Z" fill="#001238"/>
<path d="M120 2497.66V2532.27H111.24L110.46 2531.48L60.9001 2481.39L60.1201 2480.61C60.3121 2480.41 60.5041 2480.23 60.6961 2480.05C66.4801 2474.48 73.9201 2471.67 81.3841 2471.62H81.7921C81.7921 2471.62 81.7921 2471.61 81.8041 2471.62C81.8281 2471.61 81.8521 2471.62 81.8761 2471.62C89.5801 2471.67 97.2601 2474.68 103.128 2480.61L120 2497.66Z" fill="#001238"/>
<path d="M0 2411C33.132 2411 60 2438.15 60 2471.63C60 2505.11 33.132 2532.27 0 2532.27V2411Z" fill="#22A2F2"/>
<path d="M0.0595703 2411V2445.57L16.9316 2462.62C22.7996 2468.54 30.4796 2471.55 38.1836 2471.62C38.2076 2471.62 38.2316 2471.61 38.2556 2471.62H38.6036C38.6276 2471.6 38.6516 2471.62 38.6756 2471.62C46.1396 2471.55 53.5676 2468.73 59.3516 2463.18C59.5436 2463.01 59.7476 2462.82 59.9396 2462.62L59.1476 2461.82L9.63557 2411.79L8.85556 2411H0.0595703Z" fill="#001238"/>
<path d="M0.0595703 2497.66V2532.27H8.81956L9.59957 2531.48L59.1596 2481.39L59.9396 2480.61C59.7476 2480.41 59.5556 2480.23 59.3636 2480.05C53.5796 2474.48 46.1396 2471.67 38.6756 2471.62H38.2676C38.2676 2471.62 38.2676 2471.61 38.2556 2471.62C38.2316 2471.61 38.2076 2471.62 38.1836 2471.62C30.4796 2471.67 22.7996 2474.68 16.9316 2480.61L0.0595703 2497.66Z" fill="#001238"/>
<path d="M120 2532H0V2653.26H120V2532Z" fill="#001238"/>
<path d="M60 2653.26H0L30 2622.91L60 2592.57L90 2622.91L120 2653.26H60Z" fill="#F4F4F4"/>
<path d="M60 2532H120L90 2562.3L60 2592.62L30 2562.3L0 2532H60Z" fill="#22A2F2"/>
<path d="M120 2653H0V2774.26H120V2653Z" fill="#001238"/>
<path d="M42.0002 2686.35H60.0002C60.0002 2676.31 51.9362 2668.16 42.0002 2668.16H15.0002V2686.35V2704.54V2722.73V2740.92V2759.11H60.0002C60.0002 2749.07 51.9362 2740.92 42.0002 2740.92H60.0002C60.0002 2730.88 51.9362 2722.73 42.0002 2722.73H60.0002C60.0002 2712.69 51.9362 2704.54 42.0002 2704.54H60.0002C60.0002 2694.5 51.9362 2686.35 42.0002 2686.35Z" fill="#22A2F2"/>
<path d="M120 2774H0V2895.26H120V2774Z" fill="#001238"/>
<path d="M120 2834.63V2895.27H0V2834.63H37.212C37.248 2834.63 37.272 2834.62 37.296 2834.63H82.692C82.728 2834.62 82.752 2834.63 82.776 2834.63H120Z" fill="#F4F4F4"/>
<path d="M120 2774V2810.03L104.928 2825.26C99.3837 2830.84 92.2917 2833.94 85.0197 2834.52C84.2757 2834.6 83.5197 2834.62 82.7757 2834.63C82.7517 2834.63 82.7277 2834.62 82.6917 2834.63H82.3317C82.3077 2834.61 82.2837 2834.63 82.2597 2834.63C81.5037 2834.62 80.7477 2834.6 79.9917 2834.52C72.9837 2833.97 66.1437 2831.07 60.7077 2825.84C60.5037 2825.66 60.2877 2825.45 60.0837 2825.26L110.832 2774H120Z" fill="#22A2F2"/>
<path d="M59.916 2825.26C59.712 2825.45 59.484 2825.66 59.304 2825.84C53.844 2831.07 47.016 2833.97 40.008 2834.52C39.252 2834.6 38.496 2834.62 37.74 2834.63C37.716 2834.63 37.692 2834.61 37.656 2834.63H37.296C37.272 2834.62 37.248 2834.63 37.212 2834.63C36.468 2834.62 35.712 2834.6 34.968 2834.52C27.696 2833.94 20.616 2830.84 15.06 2825.26L0 2810.04V2774H9.156L59.088 2824.42L59.916 2825.26Z" fill="#22A2F2"/>
<path d="M59.916 2843.99L59.088 2844.82L9.156 2895.27H0V2859.21L15.06 2843.99C21.192 2837.82 29.184 2834.68 37.212 2834.63C37.248 2834.63 37.272 2834.62 37.296 2834.63H37.74C45.528 2834.68 53.268 2837.62 59.316 2843.41C59.496 2843.61 59.712 2843.79 59.916 2843.99Z" fill="#001238"/>
<path d="M120 2859.23V2895.27H110.844L60.0837 2843.99C60.2877 2843.79 60.4917 2843.61 60.6837 2843.41C66.7197 2837.62 74.4717 2834.68 82.2597 2834.63H82.6917C82.7277 2834.62 82.7517 2834.63 82.7757 2834.63C90.8037 2834.68 98.8077 2837.82 104.928 2843.99L120 2859.23Z" fill="#001238"/>
<path d="M120 1806H0V1927.26H120V1806Z" fill="#001238"/>
<path d="M59.8442 1902.98C59.9402 1903.64 59.9762 1904.32 59.9762 1905.01H59.7002C59.7002 1904.32 59.7362 1903.64 59.8442 1902.98Z" fill="#F4F4F4"/>
<path d="M59.8442 1887.62C59.9402 1888.29 59.9762 1888.97 59.9762 1889.66H59.7002C59.7002 1888.97 59.7362 1888.29 59.8442 1887.62Z" fill="#F4F4F4"/>
<path d="M59.8442 1872.27C59.9402 1872.94 59.9762 1873.62 59.9762 1874.31H59.7002C59.7002 1873.62 59.7362 1872.94 59.8442 1872.27Z" fill="#F4F4F4"/>
<path d="M59.8442 1856.92C59.9402 1857.59 59.9762 1858.27 59.9762 1858.96H59.7002C59.7002 1858.27 59.7362 1857.59 59.8442 1856.92Z" fill="#F4F4F4"/>
<path d="M59.9762 1843.62H59.7002C59.7002 1842.93 59.7362 1842.25 59.8442 1841.58C59.9282 1842.23 59.9762 1842.91 59.9762 1843.62Z" fill="#F4F4F4"/>
<path d="M74.8922 1889.66C67.2002 1889.66 60.8282 1895.47 59.8442 1902.98C58.8482 1895.47 52.4762 1889.66 44.7842 1889.66H74.8922Z" fill="#F4F4F4"/>
<path d="M74.8922 1874.31C67.2002 1874.31 60.8282 1880.12 59.8442 1887.62C58.8482 1880.12 52.4762 1874.31 44.7842 1874.31H74.8922Z" fill="#F4F4F4"/>
<path d="M74.8922 1858.96C67.2002 1858.96 60.8282 1864.77 59.8442 1872.27C58.8482 1864.77 52.4762 1858.96 44.7842 1858.96H74.8922Z" fill="#F4F4F4"/>
<path d="M74.8922 1843.62C67.2002 1843.62 60.8282 1849.43 59.8442 1856.93C58.8482 1849.43 52.4762 1843.62 44.7842 1843.62H74.8922Z" fill="#F4F4F4"/>
<path d="M59.9762 1905.01H59.7002C59.7002 1904.32 59.7362 1903.64 59.8442 1902.98C59.9282 1903.64 59.9762 1904.32 59.9762 1905.01Z" fill="#F4F4F4"/>
<path d="M59.9762 1889.66H59.7002C59.7002 1888.97 59.7362 1888.29 59.8442 1887.62C59.9282 1888.29 59.9762 1888.97 59.9762 1889.66Z" fill="#F4F4F4"/>
<path d="M59.9762 1874.31H59.7002C59.7002 1873.62 59.7362 1872.94 59.8442 1872.27C59.9282 1872.94 59.9762 1873.62 59.9762 1874.31Z" fill="#F4F4F4"/>
<path d="M59.9762 1858.96H59.7002C59.7002 1858.27 59.7362 1857.59 59.8442 1856.92C59.9282 1857.59 59.9762 1858.27 59.9762 1858.96Z" fill="#F4F4F4"/>
<path d="M59.9762 1843.62H59.7002C59.7002 1842.93 59.7362 1842.25 59.8442 1841.58C59.9282 1842.23 59.9762 1842.91 59.9762 1843.62Z" fill="#F4F4F4"/>
<path d="M29.7365 1902.98C29.8325 1903.64 29.8685 1904.32 29.8685 1905.01H29.5925C29.5925 1904.32 29.6285 1903.64 29.7365 1902.98Z" fill="#22A2F2"/>
<path d="M29.7365 1887.62C29.8325 1888.29 29.8685 1888.97 29.8685 1889.66H29.5925C29.5925 1888.97 29.6285 1888.29 29.7365 1887.62Z" fill="#22A2F2"/>
<path d="M29.7365 1872.27C29.8325 1872.94 29.8685 1873.62 29.8685 1874.31H29.5925C29.5925 1873.62 29.6285 1872.94 29.7365 1872.27Z" fill="#22A2F2"/>
<path d="M29.7365 1856.92C29.8325 1857.59 29.8685 1858.27 29.8685 1858.96H29.5925C29.5925 1858.27 29.6285 1857.59 29.7365 1856.92Z" fill="#22A2F2"/>
<path d="M29.8685 1843.62H29.5925C29.5925 1842.93 29.6285 1842.25 29.7365 1841.58C29.8205 1842.23 29.8685 1842.91 29.8685 1843.62Z" fill="#22A2F2"/>
<path d="M44.7843 1889.66C37.0923 1889.66 30.7203 1895.47 29.7363 1902.98C28.7403 1895.47 22.3683 1889.66 14.6763 1889.66H44.7843Z" fill="#22A2F2"/>
<path d="M44.7843 1874.31C37.0923 1874.31 30.7203 1880.12 29.7363 1887.62C28.7403 1880.12 22.3683 1874.31 14.6763 1874.31H44.7843Z" fill="#22A2F2"/>
<path d="M44.7843 1858.96C37.0923 1858.96 30.7203 1864.77 29.7363 1872.27C28.7403 1864.77 22.3683 1858.96 14.6763 1858.96H44.7843Z" fill="#22A2F2"/>
<path d="M44.7843 1843.62C37.0923 1843.62 30.7203 1849.43 29.7363 1856.93C28.7403 1849.43 22.3683 1843.62 14.6763 1843.62H44.7843Z" fill="#22A2F2"/>
<path d="M29.8685 1905.01H29.5925C29.5925 1904.32 29.6285 1903.64 29.7365 1902.98C29.8205 1903.64 29.8685 1904.32 29.8685 1905.01Z" fill="#22A2F2"/>
<path d="M29.8685 1889.66H29.5925C29.5925 1888.97 29.6285 1888.29 29.7365 1887.62C29.8205 1888.29 29.8685 1888.97 29.8685 1889.66Z" fill="#22A2F2"/>
<path d="M29.8685 1874.31H29.5925C29.5925 1873.62 29.6285 1872.94 29.7365 1872.27C29.8205 1872.94 29.8685 1873.62 29.8685 1874.31Z" fill="#22A2F2"/>
<path d="M29.8685 1858.96H29.5925C29.5925 1858.27 29.6285 1857.59 29.7365 1856.92C29.8205 1857.59 29.8685 1858.27 29.8685 1858.96Z" fill="#22A2F2"/>
<path d="M29.8685 1843.62H29.5925C29.5925 1842.93 29.6285 1842.25 29.7365 1841.58C29.8205 1842.23 29.8685 1842.91 29.8685 1843.62Z" fill="#22A2F2"/>
<path d="M89.9521 1902.98C90.0481 1903.64 90.0841 1904.32 90.0841 1905.01H89.8081C89.8081 1904.32 89.8441 1903.64 89.9521 1902.98Z" fill="#22A2F2"/>
<path d="M89.9521 1887.62C90.0481 1888.29 90.0841 1888.97 90.0841 1889.66H89.8081C89.8081 1888.97 89.8441 1888.29 89.9521 1887.62Z" fill="#22A2F2"/>
<path d="M89.9521 1872.27C90.0481 1872.94 90.0841 1873.62 90.0841 1874.31H89.8081C89.8081 1873.62 89.8441 1872.94 89.9521 1872.27Z" fill="#22A2F2"/>
<path d="M89.9521 1856.92C90.0481 1857.59 90.0841 1858.27 90.0841 1858.96H89.8081C89.8081 1858.27 89.8441 1857.59 89.9521 1856.92Z" fill="#22A2F2"/>
<path d="M90.0841 1843.62H89.8081C89.8081 1842.93 89.8441 1842.25 89.9521 1841.58C90.0361 1842.23 90.0841 1842.91 90.0841 1843.62Z" fill="#22A2F2"/>
<path d="M105 1889.66C97.3081 1889.66 90.9361 1895.47 89.9521 1902.98C88.9561 1895.47 82.5841 1889.66 74.8921 1889.66H105Z" fill="#22A2F2"/>
<path d="M105 1874.31C97.3081 1874.31 90.9361 1880.12 89.9521 1887.62C88.9561 1880.12 82.5841 1874.31 74.8921 1874.31H105Z" fill="#22A2F2"/>
<path d="M105 1858.96C97.3081 1858.96 90.9361 1864.77 89.9521 1872.27C88.9561 1864.77 82.5841 1858.96 74.8921 1858.96H105Z" fill="#22A2F2"/>
<path d="M105 1843.62C97.3081 1843.62 90.9361 1849.43 89.9521 1856.93C88.9561 1849.43 82.5841 1843.62 74.8921 1843.62H105Z" fill="#22A2F2"/>
<path d="M90.0841 1905.01H89.8081C89.8081 1904.32 89.8441 1903.64 89.9521 1902.98C90.0361 1903.64 90.0841 1904.32 90.0841 1905.01Z" fill="#22A2F2"/>
<path d="M90.0841 1889.66H89.8081C89.8081 1888.97 89.8441 1888.29 89.9521 1887.62C90.0361 1888.29 90.0841 1888.97 90.0841 1889.66Z" fill="#22A2F2"/>
<path d="M90.0841 1874.31H89.8081C89.8081 1873.62 89.8441 1872.94 89.9521 1872.27C90.0361 1872.94 90.0841 1873.62 90.0841 1874.31Z" fill="#22A2F2"/>
<path d="M90.0841 1858.96H89.8081C89.8081 1858.27 89.8441 1857.59 89.9521 1856.92C90.0361 1857.59 90.0841 1858.27 90.0841 1858.96Z" fill="#22A2F2"/>
<path d="M90.0841 1843.62H89.8081C89.8081 1842.93 89.8441 1842.25 89.9521 1841.58C90.0361 1842.23 90.0841 1842.91 90.0841 1843.62Z" fill="#22A2F2"/>
<path d="M59.8442 1841.58C59.9402 1842.25 59.9762 1842.93 59.9762 1843.62H59.7002C59.7002 1842.91 59.7362 1842.23 59.8442 1841.58Z" fill="#F4F4F4"/>
<path d="M74.8922 1828.26C67.2002 1828.26 60.8282 1834.07 59.8442 1841.58C58.8482 1834.07 52.4762 1828.26 44.7842 1828.26H74.8922Z" fill="#F4F4F4"/>
<path d="M59.9762 1843.62H59.7002C59.7002 1842.93 59.7362 1842.25 59.8442 1841.58C59.9282 1842.23 59.9762 1842.91 59.9762 1843.62Z" fill="#F4F4F4"/>
<path d="M29.7365 1841.58C29.8325 1842.25 29.8685 1842.93 29.8685 1843.62H29.5925C29.5925 1842.91 29.6285 1842.23 29.7365 1841.58Z" fill="#22A2F2"/>
<path d="M44.7843 1828.26C37.0923 1828.26 30.7203 1834.07 29.7363 1841.58C28.7403 1834.07 22.3683 1828.26 14.6763 1828.26H44.7843Z" fill="#22A2F2"/>
<path d="M29.8685 1843.62H29.5925C29.5925 1842.93 29.6285 1842.25 29.7365 1841.58C29.8205 1842.23 29.8685 1842.91 29.8685 1843.62Z" fill="#22A2F2"/>
<path d="M89.9521 1841.58C90.0481 1842.25 90.0841 1842.93 90.0841 1843.62H89.8081C89.8081 1842.91 89.8441 1842.23 89.9521 1841.58Z" fill="#22A2F2"/>
<path d="M105 1828.26C97.3081 1828.26 90.9361 1834.07 89.9521 1841.58C88.9561 1834.07 82.5841 1828.26 74.8921 1828.26H105Z" fill="#22A2F2"/>
<path d="M90.0841 1843.62H89.8081C89.8081 1842.93 89.8441 1842.25 89.9521 1841.58C90.0361 1842.23 90.0841 1842.91 90.0841 1843.62Z" fill="#22A2F2"/>
<path d="M119.737 1927.05H0.000244141V2048.05H119.737V1927.05Z" fill="#001238"/>
<path d="M119.725 2048.05H0.119873L0.323423 2047.84L29.9583 2017.86L55.115 1992.41L59.9284 1987.55L64.9214 1992.61L89.8865 2017.86L119.677 2048L119.725 2048.05Z" fill="#F4F4F4"/>
<path d="M59.9283 1927H119.845L89.8864 1957.27L59.9283 1987.55L29.9582 1957.27L0 1927H59.9283Z" fill="#22A2F2"/>
<path d="M120 1927V1961.5L103.165 1978.51C97.31 1984.41 89.6468 1987.41 81.9597 1987.49C81.9358 1987.49 81.9118 1987.48 81.8879 1987.49H81.5406C81.5167 1987.46 81.4927 1987.49 81.4688 1987.49C74.0212 1987.41 66.6095 1984.61 60.8382 1979.07C60.6466 1978.9 60.443 1978.7 60.2515 1978.51L61.0417 1977.71L110.445 1927.79L111.223 1927H120Z" fill="#001238"/>
<path d="M119.736 2013.2V2048H111.259L61.0295 1997.24L60.2512 1996.45C60.4428 1996.26 60.6344 1996.08 60.826 1995.9C62.1191 1994.66 63.4841 1993.56 64.9209 1992.61C69.914 1989.23 75.6853 1987.52 81.4686 1987.49H81.8876C81.9116 1987.48 81.9355 1987.49 81.9595 1987.49C89.6466 1987.54 97.3097 1990.54 103.165 1996.45L119.736 2013.2Z" fill="#001238"/>
<path d="M0.323242 1927V1961.5L17.1582 1978.51C23.0134 1984.41 30.6765 1987.41 38.3636 1987.49C38.3876 1987.49 38.4115 1987.48 38.4355 1987.49H38.7827C38.8067 1987.46 38.8306 1987.49 38.8545 1987.49C46.3022 1987.41 53.7139 1984.61 59.4852 1979.07C59.6768 1978.9 59.8803 1978.7 60.0719 1978.51L59.2816 1977.71L9.87824 1927.79L9.09995 1927H0.323242Z" fill="#001238"/>
<path d="M0.323486 2013.47V2048H9.06428L9.84256 2047.21L59.2939 1997.24L60.0721 1996.45C59.8806 1996.26 59.689 1996.08 59.4974 1995.9C53.7261 1990.34 46.3024 1987.54 38.8548 1987.49H38.4477C38.4477 1987.49 38.4477 1987.48 38.4357 1987.49C38.4118 1987.48 38.3878 1987.49 38.3639 1987.49C30.6768 1987.54 23.0136 1990.54 17.1585 1996.45L0.323486 2013.47Z" fill="#001238"/>
<path d="M120 2048H0V2169.26H120V2048Z" fill="#001238"/>
<path d="M70.5238 2152.85C71.6038 2152.58 72.6718 2152.28 73.7278 2151.94C71.6158 2151.51 69.5998 2150.48 67.9558 2148.82C68.8798 2149.75 69.6238 2150.82 70.1518 2151.96C70.2958 2152.25 70.4158 2152.54 70.5238 2152.85Z" fill="#22A2F2"/>
<path d="M102.852 2122.52C103.188 2121.44 103.5 2120.35 103.752 2119.26C102.3 2118.7 100.932 2117.85 99.7681 2116.66C100.692 2117.59 101.436 2118.66 101.964 2119.8C102.384 2120.67 102.672 2121.58 102.852 2122.52Z" fill="#22A2F2"/>
<path d="M52.0442 2132.74C52.9682 2133.67 53.7122 2134.74 54.2402 2135.88C56.2442 2140.1 55.5122 2145.31 52.0442 2148.82C55.5122 2145.31 60.6722 2144.58 64.8482 2146.6C65.9762 2147.15 67.0202 2147.89 67.9562 2148.82C63.5642 2144.38 63.5642 2137.18 67.9562 2132.74C63.5642 2137.18 56.4362 2137.18 52.0442 2132.74Z" fill="#22A2F2"/>
<path d="M67.9559 2116.66C67.0319 2115.73 65.9759 2114.97 64.8599 2114.44C60.6719 2112.42 55.5119 2113.17 52.0559 2116.66L67.9679 2100.58C63.5639 2105.03 63.5639 2112.22 67.9559 2116.66Z" fill="#22A2F2"/>
<path d="M49.4877 2152.85C50.0397 2151.38 50.8797 2150 52.0557 2148.82C50.4117 2150.48 48.3957 2151.51 46.2837 2151.94C47.3277 2152.28 48.4077 2152.59 49.4877 2152.85Z" fill="#22A2F2"/>
<path d="M102.852 2094.76C102.432 2096.89 101.412 2098.93 99.7798 2100.59C100.944 2099.42 102.3 2098.56 103.752 2098.01C103.488 2096.91 103.188 2095.83 102.852 2094.76Z" fill="#22A2F2"/>
<path d="M86.0519 2145.7C88.0679 2144.25 90.0119 2142.61 91.8239 2140.78C93.6479 2138.94 95.2679 2136.97 96.7199 2134.92C92.5319 2136.97 87.3479 2136.24 83.8799 2132.73C84.8039 2133.66 85.5479 2134.73 86.0759 2135.87C87.5279 2138.99 87.5159 2142.61 86.0519 2145.7Z" fill="#22A2F2"/>
<path d="M96.6724 2082.29C92.4844 2080.27 87.3244 2081.02 83.8684 2084.51L91.8244 2076.47C93.6364 2078.3 95.2564 2080.24 96.6724 2082.29Z" fill="#22A2F2"/>
<path d="M52.0443 2132.74C51.1203 2131.81 50.0643 2131.05 48.9483 2130.52C44.7603 2128.5 39.6003 2129.25 36.1443 2132.74L52.0563 2116.66C47.6523 2121.11 47.6523 2128.3 52.0443 2132.74Z" fill="#22A2F2"/>
<path d="M33.9725 2145.73C31.9445 2144.26 30.0005 2142.62 28.1885 2140.79L36.1445 2132.75C32.6645 2136.26 31.9565 2141.48 33.9725 2145.73Z" fill="#22A2F2"/>
<path d="M83.8684 2116.66C87.3364 2113.16 92.4964 2112.42 96.6724 2114.44C97.8004 2114.99 98.8444 2115.73 99.7804 2116.66C95.3884 2112.22 95.3884 2105.02 99.7804 2100.58C95.3884 2105.02 88.2604 2105.02 83.8684 2100.58C84.7924 2101.51 85.5364 2102.58 86.0644 2103.72C88.0684 2107.95 87.3364 2113.17 83.8684 2116.66Z" fill="#22A2F2"/>
<path d="M67.9558 2116.66C68.8798 2117.59 69.6238 2118.66 70.1518 2119.8C72.1558 2124.02 71.4238 2129.24 67.9558 2132.74C71.4238 2129.24 76.5838 2128.5 80.7598 2130.52C81.8878 2131.07 82.9318 2131.81 83.8678 2132.74C79.4758 2128.3 79.4758 2121.1 83.8678 2116.66C79.4758 2121.1 72.3478 2121.1 67.9558 2116.66Z" fill="#22A2F2"/>
<path d="M83.8683 2100.59C82.9443 2099.66 81.8883 2098.91 80.7723 2098.37C76.5842 2096.35 71.4243 2097.1 67.9683 2100.59L83.8803 2084.51C79.4762 2088.95 79.4643 2096.14 83.8683 2100.59Z" fill="#22A2F2"/>
<path d="M67.9682 2100.59L52.0562 2116.67C55.5242 2113.17 56.2442 2107.97 54.2522 2103.73C53.7122 2102.61 52.9802 2101.54 52.0442 2100.59C56.4362 2105.03 63.5642 2105.03 67.9682 2100.59Z" fill="#F4F4F4"/>
<path d="M20.2199 2100.59C19.2959 2099.66 18.2398 2098.91 17.1238 2098.37C16.8358 2098.24 16.5358 2098.11 16.2358 2098C16.4878 2096.92 16.7999 2095.84 17.1479 2094.76C17.5679 2096.89 18.5879 2098.93 20.2199 2100.59Z" fill="#F4F4F4"/>
<path d="M17.1478 2122.49C16.8118 2121.43 16.4998 2120.35 16.2478 2119.26C17.6998 2118.7 19.0678 2117.85 20.2318 2116.66C18.5878 2118.33 17.5558 2120.36 17.1478 2122.49Z" fill="#F4F4F4"/>
<path d="M91.8244 2076.47L83.8684 2084.51C87.3364 2081.01 88.0564 2075.81 86.0644 2071.57C88.0924 2073.02 90.0124 2074.65 91.8244 2076.47Z" fill="#F4F4F4"/>
<path d="M52.044 2068.43C51.12 2067.5 50.0641 2066.75 48.9481 2066.21C48.0841 2065.8 47.172 2065.5 46.248 2065.32C47.316 2064.98 48.408 2064.66 49.488 2064.41C50.028 2065.87 50.88 2067.26 52.044 2068.43Z" fill="#F4F4F4"/>
<path d="M73.7283 2065.32C71.6163 2065.74 69.6003 2066.77 67.9683 2068.43C69.1323 2067.26 69.9842 2065.89 70.5242 2064.43C71.5922 2064.67 72.6603 2064.99 73.7283 2065.32Z" fill="#F4F4F4"/>
<path d="M36.1322 2084.51C35.2082 2083.58 34.1522 2082.83 33.0362 2082.29C29.9642 2080.81 26.3762 2080.83 23.3162 2082.31C24.7562 2080.27 26.3762 2078.32 28.1882 2076.47C30.0002 2074.64 31.9442 2072.99 33.9722 2071.54C31.9442 2075.77 32.6642 2081.01 36.1322 2084.51Z" fill="#F4F4F4"/>
<path d="M52.0556 2116.66L36.1436 2132.74C39.6116 2129.24 40.3316 2124.03 38.3396 2119.8C37.7996 2118.67 37.0676 2117.61 36.1316 2116.66C40.5236 2121.11 47.6516 2121.11 52.0556 2116.66Z" fill="#F4F4F4"/>
<path d="M52.0436 2100.59C51.1196 2099.66 50.0636 2098.91 48.9476 2098.37C44.7596 2096.35 39.5996 2097.1 36.1436 2100.59C39.6116 2097.09 40.3316 2091.89 38.3396 2087.65C37.7996 2086.53 37.0676 2085.46 36.1316 2084.51C40.5236 2088.95 47.6516 2088.95 52.0556 2084.51C47.6516 2088.95 47.6516 2096.14 52.0436 2100.59Z" fill="#F4F4F4"/>
<path d="M36.1322 2116.66C35.2082 2115.73 34.1522 2114.97 33.0362 2114.44C28.8482 2112.42 23.6882 2113.17 20.2322 2116.66C23.7002 2113.16 24.4202 2107.95 22.4282 2103.72C21.8882 2102.59 21.1562 2101.53 20.2202 2100.58C24.6122 2105.02 31.7402 2105.02 36.1442 2100.58C31.7522 2105.03 31.7402 2112.22 36.1322 2116.66Z" fill="#F4F4F4"/>
<path d="M36.1442 2132.74L28.1882 2140.78C26.3642 2138.94 24.7442 2136.97 23.3042 2134.93C27.4922 2136.98 32.6642 2136.26 36.1442 2132.74Z" fill="#F4F4F4"/>
<path d="M67.9562 2084.51C67.0322 2083.58 65.9762 2082.83 64.8602 2082.29C60.6722 2080.27 55.5122 2081.02 52.0562 2084.51C55.5242 2081.01 56.2442 2075.81 54.2522 2071.57C53.7122 2070.45 52.9802 2069.38 52.0442 2068.43C56.4362 2072.87 63.5642 2072.87 67.9682 2068.43C63.5642 2072.87 63.5642 2080.06 67.9562 2084.51Z" fill="#F4F4F4"/>
<path d="M83.8681 2084.51L67.9561 2100.59C71.4241 2097.09 72.1441 2091.89 70.1521 2087.65C69.6121 2086.53 68.8801 2085.46 67.9441 2084.51C72.3481 2088.95 79.4761 2088.95 83.8681 2084.51Z" fill="#F4F4F4"/>
<path d="M120 2169H0V2290.26H120V2169Z" fill="#001238"/>
<path d="M120 2169V2290.26C116.748 2290.26 113.568 2290 110.46 2289.48C85.0681 2285.33 65.0041 2265.05 60.9001 2239.39C60.8281 2238.95 60.7561 2238.5 60.6961 2238.05C60.3121 2235.3 60.1201 2232.48 60.1201 2229.63C60.1201 2226.77 60.3121 2223.95 60.7081 2221.18C60.7561 2220.73 60.8281 2220.27 60.9121 2219.82C65.0281 2194.19 85.0681 2173.95 110.424 2169.79C113.544 2169.28 116.736 2169 120 2169Z" fill="#22A2F2"/>
<path d="M0 2169C33.132 2169 60 2196.15 60 2229.63C60 2263.11 33.132 2290.26 0 2290.26V2169Z" fill="#F4F4F4"/>
<path d="M120 0H0V121.265H120V0Z" fill="#001238"/>
<path d="M15.0962 45.4744H45.0842C45.0842 39.8962 40.6082 35.373 35.0882 35.373H15.0962V45.4744Z" fill="#22A2F2"/>
<path d="M15.0962 25.3445H45.0842C45.0842 19.7663 40.6082 15.2432 35.0882 15.2432H15.0962V25.3445Z" fill="#22A2F2"/>
<path d="M15.0962 85.8074H45.0842C45.0842 80.2292 40.6082 75.7061 35.0882 75.7061H15.0962V85.8074Z" fill="#22A2F2"/>
<path d="M15.0962 65.6775H45.0842C45.0842 60.0994 40.6082 55.5762 35.0882 55.5762H15.0962V65.6775Z" fill="#22A2F2"/>
<path d="M15.0962 106.01H45.0842C45.0842 100.432 40.6082 95.9087 35.0882 95.9087H15.0962V106.01Z" fill="#22A2F2"/>
<path d="M104.999 45.4744H75.0115C75.0115 39.8962 79.4875 35.373 85.0075 35.373H104.999V45.4744Z" fill="#F4F4F4"/>
<path d="M104.999 25.3445H75.0115C75.0115 19.7663 79.4875 15.2432 85.0075 15.2432H104.999V25.3445Z" fill="#F4F4F4"/>
<path d="M104.999 85.8074H75.0115C75.0115 80.2292 79.4875 75.7061 85.0075 75.7061H104.999V85.8074Z" fill="#F4F4F4"/>
<path d="M104.999 65.6775H75.0115C75.0115 60.0994 79.4875 55.5762 85.0075 55.5762H104.999V65.6775Z" fill="#F4F4F4"/>
<path d="M104.999 106.01H75.0115C75.0115 100.432 79.4875 95.9087 85.0075 95.9087H104.999V106.01Z" fill="#F4F4F4"/>
<path d="M120 121.265H0V242.53H120V121.265Z" fill="#001238"/>
<path d="M120 121.265V242.53C116.748 242.53 113.568 242.263 110.46 241.741C85.0681 237.594 65.0041 217.319 60.9001 191.659C60.8281 191.21 60.7561 190.762 60.6961 190.313C60.3121 187.56 60.1201 184.747 60.1201 181.897C60.1201 179.035 60.3121 176.21 60.7081 173.445C60.7561 172.996 60.8281 172.535 60.9121 172.087C65.0281 146.451 85.0681 126.212 110.424 122.053C113.544 121.544 116.736 121.265 120 121.265Z" fill="#F4F4F4"/>
<path d="M0 121.265C33.132 121.265 60 148.416 60 181.897C60 215.378 33.132 242.53 0 242.53V121.265Z" fill="#22A2F2"/>
<path d="M120 188.555H0C0 210.88 17.916 228.972 39.996 228.972H120V188.555Z" fill="#001238"/>
<path d="M0 175.458H120C120 153.133 102.084 135.041 80.004 135.041H0V175.458Z" fill="#001238"/>
<path d="M120 242.53H0V363.795H120V242.53Z" fill="#001238"/>
<path d="M22.5 257.688H30L26.256 264.261L22.5 270.822L18.756 264.261L15 257.688H22.5Z" fill="#22A2F2"/>
<path d="M37.5 257.688H45L41.256 264.261L37.5 270.822L33.756 264.261L30 257.688H37.5Z" fill="#F4F4F4"/>
<path d="M52.5002 257.688H60.0002L56.2562 264.261L52.5002 270.822L48.7562 264.261L45.0002 257.688H52.5002Z" fill="#22A2F2"/>
<path d="M67.4997 257.688H74.9997L71.2558 264.261L67.4997 270.822L63.7558 264.261L59.9998 257.688H67.4997Z" fill="#F4F4F4"/>
<path d="M82.4998 257.688H89.9998L86.2558 264.261L82.4998 270.822L78.7558 264.261L74.9998 257.688H82.4998Z" fill="#22A2F2"/>
<path d="M97.5 257.688H105L101.256 264.261L97.5 270.822L93.756 264.261L90 257.688H97.5Z" fill="#F4F4F4"/>
<path d="M22.5 270.821H30L26.256 277.382L22.5 283.942L18.756 277.382L15 270.821H22.5Z" fill="#22A2F2"/>
<path d="M37.5 270.821H45L41.256 277.382L37.5 283.942L33.756 277.382L30 270.821H37.5Z" fill="#F4F4F4"/>
<path d="M52.5002 270.821H60.0002L56.2562 277.382L52.5002 283.942L48.7562 277.382L45.0002 270.821H52.5002Z" fill="#22A2F2"/>
<path d="M67.4997 270.821H74.9997L71.2558 277.382L67.4997 283.942L63.7558 277.382L59.9998 270.821H67.4997Z" fill="#F4F4F4"/>
<path d="M82.4998 270.821H89.9998L86.2558 277.382L82.4998 283.942L78.7558 277.382L74.9998 270.821H82.4998Z" fill="#22A2F2"/>
<path d="M97.5 270.821H105L101.256 277.382L97.5 283.942L93.756 277.382L90 270.821H97.5Z" fill="#F4F4F4"/>
<path d="M22.5 283.942H30L26.256 290.515L22.5 297.075L18.756 290.515L15 283.942H22.5Z" fill="#22A2F2"/>
<path d="M37.5 283.942H45L41.256 290.515L37.5 297.075L33.756 290.515L30 283.942H37.5Z" fill="#F4F4F4"/>
<path d="M52.5002 283.942H60.0002L56.2562 290.515L52.5002 297.075L48.7562 290.515L45.0002 283.942H52.5002Z" fill="#22A2F2"/>
<path d="M67.4997 283.942H74.9997L71.2558 290.515L67.4997 297.075L63.7558 290.515L59.9998 283.942H67.4997Z" fill="#F4F4F4"/>
<path d="M82.4998 283.942H89.9998L86.2558 290.515L82.4998 297.075L78.7558 290.515L74.9998 283.942H82.4998Z" fill="#22A2F2"/>
<path d="M97.5 283.942H105L101.256 290.515L97.5 297.075L93.756 290.515L90 283.942H97.5Z" fill="#F4F4F4"/>
<path d="M22.5 297.075H30L26.256 303.636L22.5 310.196L18.756 303.636L15 297.075H22.5Z" fill="#22A2F2"/>
<path d="M37.5 297.075H45L41.256 303.636L37.5 310.196L33.756 303.636L30 297.075H37.5Z" fill="#F4F4F4"/>
<path d="M52.5002 297.075H60.0002L56.2562 303.636L52.5002 310.196L48.7562 303.636L45.0002 297.075H52.5002Z" fill="#22A2F2"/>
<path d="M67.4997 297.075H74.9997L71.2558 303.636L67.4997 310.196L63.7558 303.636L59.9998 297.075H67.4997Z" fill="#F4F4F4"/>
<path d="M82.4998 297.075H89.9998L86.2558 303.636L82.4998 310.196L78.7558 303.636L74.9998 297.075H82.4998Z" fill="#22A2F2"/>
<path d="M97.5 297.075H105L101.256 303.636L97.5 310.196L93.756 303.636L90 297.075H97.5Z" fill="#F4F4F4"/>
<path d="M22.5 310.196H30L26.256 316.769L22.5 323.329L18.756 316.769L15 310.196H22.5Z" fill="#22A2F2"/>
<path d="M37.5 310.196H45L41.256 316.769L37.5 323.329L33.756 316.769L30 310.196H37.5Z" fill="#F4F4F4"/>
<path d="M52.5002 310.196H60.0002L56.2562 316.769L52.5002 323.329L48.7562 316.769L45.0002 310.196H52.5002Z" fill="#22A2F2"/>
<path d="M67.4997 310.196H74.9997L71.2558 316.769L67.4997 323.329L63.7558 316.769L59.9998 310.196H67.4997Z" fill="#F4F4F4"/>
<path d="M82.4998 310.196H89.9998L86.2558 316.769L82.4998 323.329L78.7558 316.769L74.9998 310.196H82.4998Z" fill="#22A2F2"/>
<path d="M97.5 310.196H105L101.256 316.769L97.5 323.329L93.756 316.769L90 310.196H97.5Z" fill="#F4F4F4"/>
<path d="M22.5 323.33H30L26.256 329.89L22.5 336.45L18.756 329.89L15 323.33H22.5Z" fill="#22A2F2"/>
<path d="M37.5 323.33H45L41.256 329.89L37.5 336.45L33.756 329.89L30 323.33H37.5Z" fill="#F4F4F4"/>
<path d="M52.5002 323.33H60.0002L56.2562 329.89L52.5002 336.45L48.7562 329.89L45.0002 323.33H52.5002Z" fill="#22A2F2"/>
<path d="M67.4997 323.33H74.9997L71.2558 329.89L67.4997 336.45L63.7558 329.89L59.9998 323.33H67.4997Z" fill="#F4F4F4"/>
<path d="M82.4998 323.33H89.9998L86.2558 329.89L82.4998 336.45L78.7558 329.89L74.9998 323.33H82.4998Z" fill="#22A2F2"/>
<path d="M97.5 323.33H105L101.256 329.89L97.5 336.45L93.756 329.89L90 323.33H97.5Z" fill="#F4F4F4"/>
<path d="M22.5 336.45H30L26.256 343.023L22.5 349.583L18.756 343.023L15 336.45H22.5Z" fill="#22A2F2"/>
<path d="M37.5 336.45H45L41.256 343.023L37.5 349.583L33.756 343.023L30 336.45H37.5Z" fill="#F4F4F4"/>
<path d="M52.5002 336.45H60.0002L56.2562 343.023L52.5002 349.583L48.7562 343.023L45.0002 336.45H52.5002Z" fill="#22A2F2"/>
<path d="M67.4997 336.45H74.9997L71.2558 343.023L67.4997 349.583L63.7558 343.023L59.9998 336.45H67.4997Z" fill="#F4F4F4"/>
<path d="M82.4998 336.45H89.9998L86.2558 343.023L82.4998 349.583L78.7558 343.023L74.9998 336.45H82.4998Z" fill="#22A2F2"/>
<path d="M97.5 336.45H105L101.256 343.023L97.5 349.583L93.756 343.023L90 336.45H97.5Z" fill="#F4F4F4"/>
<path d="M120 363.795H0V485.06H120V363.795Z" fill="#001238"/>
<path d="M120 363.795V485.06C116.748 485.06 113.568 484.793 110.46 484.272C85.0681 480.124 65.0041 459.849 60.9001 434.189C60.8281 433.741 60.7561 433.292 60.6961 432.843C60.3121 430.091 60.1201 427.277 60.1201 424.427C60.1201 421.566 60.3121 418.74 60.7081 415.975C60.7561 415.527 60.8281 415.066 60.9121 414.617C65.0281 388.982 85.0681 368.743 110.424 364.583C113.544 364.074 116.736 363.795 120 363.795Z" fill="#F4F4F4"/>
<path d="M0 363.795C33.132 363.795 60 390.946 60 424.427C60 457.909 33.132 485.06 0 485.06V363.795Z" fill="#22A2F2"/>
<path d="M120 431.097H0C0 453.422 17.916 471.514 39.996 471.514H120V431.097Z" fill="#001238"/>
<path d="M0 418H120C120 395.675 102.084 377.583 80.004 377.583H0V418Z" fill="#001238"/>
<path d="M120 485.47H0V606.735H120V485.47Z" fill="#001238"/>
<path d="M120 546.296V606.735H0.000244141V559.441C4.28424 551.498 12.6003 546.102 22.1763 546.102V571.58C22.1763 557.513 33.4802 546.102 47.3882 546.102V571.58C47.3882 557.513 58.6923 546.102 72.6123 546.102V571.58C72.6123 557.513 83.9042 546.102 97.8242 546.102V571.58C97.8242 558.556 107.508 547.8 120 546.296Z" fill="#22A2F2"/>
<path d="M120 485.47V532.763C115.716 540.706 107.4 546.102 97.824 546.102V520.624C97.824 534.679 86.52 546.102 72.612 546.102V520.624C72.612 534.679 61.308 546.102 47.388 546.102V520.624C47.388 534.679 36.096 546.102 22.176 546.102V520.624C22.176 533.636 12.492 544.405 0 545.908V485.47H120Z" fill="#F4F4F4"/>
<path d="M120 728H0V849.265H120V728Z" fill="#001238"/>
<path d="M42.7918 791.155L0 747.912V728H16.0559L42.7918 755.006C52.6678 764.986 52.6678 781.175 42.7918 791.155Z" fill="#F4F4F4"/>
<path d="M120 728V744.528L94.104 770.697C84.228 780.689 68.196 780.689 58.3201 770.697L100.572 728H120Z" fill="#22A2F2"/>
<path d="M120 833.04V849.265H101.472L78.0121 825.558C68.4602 815.905 68.4602 800.25 78.0121 790.597L120 833.04Z" fill="#F4F4F4"/>
<path d="M57.732 805.052L13.9802 849.265H0.000244141V828.444L23.1362 805.052C32.6881 795.411 48.1801 795.411 57.732 805.052Z" fill="#22A2F2"/>
<path d="M120 849.265H0V970.53H120V849.265Z" fill="#001238"/>
<path d="M66.0005 864.423V955.372C82.5605 955.372 96.0005 941.79 96.0005 925.055V864.423H66.0005Z" fill="#F4F4F4"/>
<path d="M56.28 955.372V864.423C39.72 864.423 26.28 878.005 26.28 894.739V955.372H56.28Z" fill="#22A2F2"/>
<path d="M120 1091.79H0V1213.06H120V1091.79Z" fill="#001238"/>
<path d="M59.8442 1188.77C59.9402 1189.44 59.9762 1190.12 59.9762 1190.81H59.7002C59.7002 1190.12 59.7362 1189.44 59.8442 1188.77Z" fill="#F4F4F4"/>
<path d="M59.8442 1173.42C59.9402 1174.08 59.9762 1174.76 59.9762 1175.46H59.7002C59.7002 1174.76 59.7362 1174.08 59.8442 1173.42Z" fill="#F4F4F4"/>
<path d="M59.8442 1158.07C59.9402 1158.73 59.9762 1159.41 59.9762 1160.1H59.7002C59.7002 1159.41 59.7362 1158.73 59.8442 1158.07Z" fill="#F4F4F4"/>
<path d="M59.8442 1142.73C59.9402 1143.39 59.9762 1144.07 59.9762 1144.76H59.7002C59.7002 1144.06 59.7362 1143.38 59.8442 1142.73Z" fill="#F4F4F4"/>
<path d="M59.9762 1129.41H59.7002C59.7002 1128.72 59.7362 1128.04 59.8442 1127.37C59.9402 1128.04 59.9762 1128.71 59.9762 1129.41Z" fill="#F4F4F4"/>
<path d="M74.8922 1175.46C67.2002 1175.46 60.8282 1181.26 59.8442 1188.77C58.8482 1181.26 52.4762 1175.46 44.7842 1175.46H74.8922Z" fill="#F4F4F4"/>
<path d="M74.8922 1160.1C67.2002 1160.1 60.8282 1165.91 59.8442 1173.42C58.8482 1165.91 52.4762 1160.1 44.7842 1160.1H74.8922Z" fill="#F4F4F4"/>
<path d="M74.8922 1144.75C67.2002 1144.75 60.8282 1150.56 59.8442 1158.07C58.8482 1150.56 52.4762 1144.75 44.7842 1144.75H74.8922Z" fill="#F4F4F4"/>
<path d="M74.8922 1129.41C67.2002 1129.41 60.8282 1135.22 59.8442 1142.73C58.8482 1135.22 52.4762 1129.41 44.7842 1129.41H74.8922Z" fill="#F4F4F4"/>
<path d="M59.9762 1190.81H59.7002C59.7002 1190.12 59.7362 1189.44 59.8442 1188.77C59.9402 1189.44 59.9762 1190.12 59.9762 1190.81Z" fill="#F4F4F4"/>
<path d="M59.9762 1175.46H59.7002C59.7002 1174.76 59.7362 1174.08 59.8442 1173.42C59.9402 1174.08 59.9762 1174.76 59.9762 1175.46Z" fill="#F4F4F4"/>
<path d="M59.9762 1160.1H59.7002C59.7002 1159.41 59.7362 1158.73 59.8442 1158.07C59.9402 1158.73 59.9762 1159.41 59.9762 1160.1Z" fill="#F4F4F4"/>
<path d="M59.9762 1144.75H59.7002C59.7002 1144.06 59.7362 1143.38 59.8442 1142.71C59.9402 1143.38 59.9762 1144.06 59.9762 1144.75Z" fill="#F4F4F4"/>
<path d="M59.9762 1129.41H59.7002C59.7002 1128.72 59.7362 1128.04 59.8442 1127.37C59.9402 1128.04 59.9762 1128.71 59.9762 1129.41Z" fill="#F4F4F4"/>
<path d="M29.7365 1188.77C29.8325 1189.44 29.8685 1190.12 29.8685 1190.81H29.5925C29.5925 1190.12 29.6285 1189.44 29.7365 1188.77Z" fill="#22A2F2"/>
<path d="M29.7365 1173.42C29.8325 1174.08 29.8685 1174.76 29.8685 1175.46H29.5925C29.5925 1174.76 29.6285 1174.08 29.7365 1173.42Z" fill="#22A2F2"/>
<path d="M29.7365 1158.07C29.8325 1158.73 29.8685 1159.41 29.8685 1160.1H29.5925C29.5925 1159.41 29.6285 1158.73 29.7365 1158.07Z" fill="#22A2F2"/>
<path d="M29.7365 1142.73C29.8325 1143.39 29.8685 1144.07 29.8685 1144.76H29.5925C29.5925 1144.06 29.6285 1143.38 29.7365 1142.73Z" fill="#22A2F2"/>
<path d="M29.8685 1129.41H29.5925C29.5925 1128.72 29.6285 1128.04 29.7365 1127.37C29.8325 1128.04 29.8685 1128.71 29.8685 1129.41Z" fill="#22A2F2"/>
<path d="M44.7845 1175.46C37.0925 1175.46 30.7205 1181.26 29.7365 1188.77C28.7405 1181.26 22.3685 1175.46 14.6765 1175.46H44.7845Z" fill="#22A2F2"/>
<path d="M44.7845 1160.1C37.0925 1160.1 30.7205 1165.91 29.7365 1173.42C28.7405 1165.91 22.3685 1160.1 14.6765 1160.1H44.7845Z" fill="#22A2F2"/>
<path d="M44.7845 1144.75C37.0925 1144.75 30.7205 1150.56 29.7365 1158.07C28.7405 1150.56 22.3685 1144.75 14.6765 1144.75H44.7845Z" fill="#22A2F2"/>
<path d="M44.7845 1129.41C37.0925 1129.41 30.7205 1135.22 29.7365 1142.73C28.7405 1135.22 22.3685 1129.41 14.6765 1129.41H44.7845Z" fill="#22A2F2"/>
<path d="M29.8685 1190.81H29.5925C29.5925 1190.12 29.6285 1189.44 29.7365 1188.77C29.8325 1189.44 29.8685 1190.12 29.8685 1190.81Z" fill="#22A2F2"/>
<path d="M29.8685 1175.46H29.5925C29.5925 1174.76 29.6285 1174.08 29.7365 1173.42C29.8325 1174.08 29.8685 1174.76 29.8685 1175.46Z" fill="#22A2F2"/>
<path d="M29.8685 1160.1H29.5925C29.5925 1159.41 29.6285 1158.73 29.7365 1158.07C29.8325 1158.73 29.8685 1159.41 29.8685 1160.1Z" fill="#22A2F2"/>
<path d="M29.8685 1144.75H29.5925C29.5925 1144.06 29.6285 1143.38 29.7365 1142.71C29.8325 1143.38 29.8685 1144.06 29.8685 1144.75Z" fill="#22A2F2"/>
<path d="M29.8685 1129.41H29.5925C29.5925 1128.72 29.6285 1128.04 29.7365 1127.37C29.8325 1128.04 29.8685 1128.71 29.8685 1129.41Z" fill="#22A2F2"/>
<path d="M89.9521 1188.77C90.0481 1189.44 90.0841 1190.12 90.0841 1190.81H89.8081C89.8081 1190.12 89.8441 1189.44 89.9521 1188.77Z" fill="#22A2F2"/>
<path d="M89.9521 1173.42C90.0481 1174.08 90.0841 1174.76 90.0841 1175.46H89.8081C89.8081 1174.76 89.8441 1174.08 89.9521 1173.42Z" fill="#22A2F2"/>
<path d="M89.9521 1158.07C90.0481 1158.73 90.0841 1159.41 90.0841 1160.1H89.8081C89.8081 1159.41 89.8441 1158.73 89.9521 1158.07Z" fill="#22A2F2"/>
<path d="M89.9521 1142.73C90.0481 1143.39 90.0841 1144.07 90.0841 1144.76H89.8081C89.8081 1144.06 89.8441 1143.38 89.9521 1142.73Z" fill="#22A2F2"/>
<path d="M90.0841 1129.41H89.8081C89.8081 1128.72 89.8441 1128.04 89.9521 1127.37C90.0481 1128.04 90.0841 1128.71 90.0841 1129.41Z" fill="#22A2F2"/>
<path d="M105 1175.46C97.3083 1175.46 90.9363 1181.26 89.9523 1188.77C88.9563 1181.26 82.5843 1175.46 74.8923 1175.46H105Z" fill="#22A2F2"/>
<path d="M105 1160.1C97.3083 1160.1 90.9363 1165.91 89.9523 1173.42C88.9563 1165.91 82.5843 1160.1 74.8923 1160.1H105Z" fill="#22A2F2"/>
<path d="M105 1144.75C97.3083 1144.75 90.9363 1150.56 89.9523 1158.07C88.9563 1150.56 82.5843 1144.75 74.8923 1144.75H105Z" fill="#22A2F2"/>
<path d="M105 1129.41C97.3083 1129.41 90.9363 1135.22 89.9523 1142.73C88.9563 1135.22 82.5843 1129.41 74.8923 1129.41H105Z" fill="#22A2F2"/>
<path d="M90.0841 1190.81H89.8081C89.8081 1190.12 89.8441 1189.44 89.9521 1188.77C90.0481 1189.44 90.0841 1190.12 90.0841 1190.81Z" fill="#22A2F2"/>
<path d="M90.0841 1175.46H89.8081C89.8081 1174.76 89.8441 1174.08 89.9521 1173.42C90.0481 1174.08 90.0841 1174.76 90.0841 1175.46Z" fill="#22A2F2"/>
<path d="M90.0841 1160.1H89.8081C89.8081 1159.41 89.8441 1158.73 89.9521 1158.07C90.0481 1158.73 90.0841 1159.41 90.0841 1160.1Z" fill="#22A2F2"/>
<path d="M90.0841 1144.75H89.8081C89.8081 1144.06 89.8441 1143.38 89.9521 1142.71C90.0481 1143.38 90.0841 1144.06 90.0841 1144.75Z" fill="#22A2F2"/>
<path d="M90.0841 1129.41H89.8081C89.8081 1128.72 89.8441 1128.04 89.9521 1127.37C90.0481 1128.04 90.0841 1128.71 90.0841 1129.41Z" fill="#22A2F2"/>
<path d="M59.8442 1127.37C59.9402 1128.04 59.9762 1128.72 59.9762 1129.41H59.7002C59.7002 1128.71 59.7362 1128.04 59.8442 1127.37Z" fill="#F4F4F4"/>
<path d="M74.8922 1114.06C67.2002 1114.06 60.8282 1119.87 59.8442 1127.37C58.8482 1119.87 52.4762 1114.06 44.7842 1114.06H74.8922Z" fill="#F4F4F4"/>
<path d="M59.9762 1129.41H59.7002C59.7002 1128.72 59.7362 1128.04 59.8442 1127.37C59.9402 1128.04 59.9762 1128.71 59.9762 1129.41Z" fill="#F4F4F4"/>
<path d="M29.7365 1127.37C29.8325 1128.04 29.8685 1128.72 29.8685 1129.41H29.5925C29.5925 1128.71 29.6285 1128.04 29.7365 1127.37Z" fill="#22A2F2"/>
<path d="M44.7845 1114.06C37.0925 1114.06 30.7205 1119.87 29.7365 1127.37C28.7405 1119.87 22.3685 1114.06 14.6765 1114.06H44.7845Z" fill="#22A2F2"/>
<path d="M29.8685 1129.41H29.5925C29.5925 1128.72 29.6285 1128.04 29.7365 1127.37C29.8325 1128.04 29.8685 1128.71 29.8685 1129.41Z" fill="#22A2F2"/>
<path d="M89.9521 1127.37C90.0481 1128.04 90.0841 1128.72 90.0841 1129.41H89.8081C89.8081 1128.71 89.8441 1128.04 89.9521 1127.37Z" fill="#22A2F2"/>
<path d="M105 1114.06C97.3083 1114.06 90.9363 1119.87 89.9523 1127.37C88.9563 1119.87 82.5843 1114.06 74.8923 1114.06H105Z" fill="#22A2F2"/>
<path d="M90.0841 1129.41H89.8081C89.8081 1128.72 89.8441 1128.04 89.9521 1127.37C90.0481 1128.04 90.0841 1128.71 90.0841 1129.41Z" fill="#22A2F2"/>
<path d="M120 606.735H0V728H120V606.735Z" fill="#001238"/>
<path d="M59.8442 703.699C59.9402 704.366 59.9762 705.045 59.9762 705.736H59.7002C59.7002 705.045 59.7362 704.366 59.8442 703.699Z" fill="#F4F4F4"/>
<path d="M59.8442 688.346C59.9402 689.013 59.9762 689.692 59.9762 690.383H59.7002C59.7002 689.692 59.7362 689.013 59.8442 688.346Z" fill="#F4F4F4"/>
<path d="M59.8442 673.006C59.9402 673.673 59.9762 674.352 59.9762 675.044H59.7002C59.7002 674.34 59.7362 673.661 59.8442 673.006Z" fill="#F4F4F4"/>
<path d="M59.8442 657.654C59.9402 658.321 59.9762 659 59.9762 659.692H59.7002C59.7002 658.988 59.7362 658.321 59.8442 657.654Z" fill="#F4F4F4"/>
<path d="M59.9762 644.339H59.7002C59.7002 643.648 59.7362 642.969 59.8442 642.302C59.9402 642.969 59.9762 643.636 59.9762 644.339Z" fill="#F4F4F4"/>
<path d="M74.8922 690.383C67.2002 690.383 60.8282 696.192 59.8442 703.698C58.8482 696.192 52.4762 690.383 44.7842 690.383H74.8922Z" fill="#F4F4F4"/>
<path d="M74.8922 675.043C67.2002 675.043 60.8282 680.852 59.8442 688.358C58.8482 680.852 52.4762 675.043 44.7842 675.043H74.8922Z" fill="#F4F4F4"/>
<path d="M74.8922 659.691C67.2002 659.691 60.8282 665.5 59.8442 673.006C58.8482 665.5 52.4762 659.691 44.7842 659.691H74.8922Z" fill="#F4F4F4"/>
<path d="M74.8922 644.339C67.2002 644.339 60.8282 650.148 59.8442 657.654C58.8482 650.148 52.4762 644.339 44.7842 644.339H74.8922Z" fill="#F4F4F4"/>
<path d="M59.9762 705.736H59.7002C59.7002 705.045 59.7362 704.366 59.8442 703.699C59.9402 704.366 59.9762 705.045 59.9762 705.736Z" fill="#F4F4F4"/>
<path d="M59.9762 690.383H59.7002C59.7002 689.692 59.7362 689.013 59.8442 688.346C59.9402 689.013 59.9762 689.692 59.9762 690.383Z" fill="#F4F4F4"/>
<path d="M59.9762 675.044H59.7002C59.7002 674.352 59.7362 673.673 59.8442 673.006C59.9402 673.661 59.9762 674.34 59.9762 675.044Z" fill="#F4F4F4"/>
<path d="M59.9762 659.692H59.7002C59.7002 659 59.7362 658.321 59.8442 657.654C59.9402 658.321 59.9762 658.988 59.9762 659.692Z" fill="#F4F4F4"/>
<path d="M59.9762 644.339H59.7002C59.7002 643.648 59.7362 642.969 59.8442 642.302C59.9402 642.969 59.9762 643.636 59.9762 644.339Z" fill="#F4F4F4"/>
<path d="M29.7365 703.699C29.8325 704.366 29.8686 705.045 29.8686 705.736H29.5925C29.5925 705.045 29.6285 704.366 29.7365 703.699Z" fill="#22A2F2"/>
<path d="M29.7365 688.346C29.8325 689.013 29.8686 689.692 29.8686 690.383H29.5925C29.5925 689.692 29.6285 689.013 29.7365 688.346Z" fill="#22A2F2"/>
<path d="M29.7365 673.006C29.8325 673.673 29.8686 674.352 29.8686 675.044H29.5925C29.5925 674.34 29.6285 673.661 29.7365 673.006Z" fill="#22A2F2"/>
<path d="M29.7365 657.654C29.8325 658.321 29.8686 659 29.8686 659.692H29.5925C29.5925 658.988 29.6285 658.321 29.7365 657.654Z" fill="#22A2F2"/>
<path d="M29.8686 644.339H29.5925C29.5925 643.648 29.6285 642.969 29.7365 642.302C29.8325 642.969 29.8686 643.636 29.8686 644.339Z" fill="#22A2F2"/>
<path d="M44.7842 690.383C37.0923 690.383 30.7202 696.192 29.7362 703.698C28.7402 696.192 22.3683 690.383 14.6763 690.383H44.7842Z" fill="#22A2F2"/>
<path d="M44.7842 675.043C37.0923 675.043 30.7202 680.852 29.7362 688.358C28.7402 680.852 22.3683 675.043 14.6763 675.043H44.7842Z" fill="#22A2F2"/>
<path d="M44.7842 659.691C37.0923 659.691 30.7202 665.5 29.7362 673.006C28.7402 665.5 22.3683 659.691 14.6763 659.691H44.7842Z" fill="#22A2F2"/>
<path d="M44.7842 644.339C37.0923 644.339 30.7202 650.148 29.7362 657.654C28.7402 650.148 22.3683 644.339 14.6763 644.339H44.7842Z" fill="#22A2F2"/>
<path d="M29.8686 705.736H29.5925C29.5925 705.045 29.6285 704.366 29.7365 703.699C29.8325 704.366 29.8686 705.045 29.8686 705.736Z" fill="#22A2F2"/>
<path d="M29.8686 690.383H29.5925C29.5925 689.692 29.6285 689.013 29.7365 688.346C29.8325 689.013 29.8686 689.692 29.8686 690.383Z" fill="#22A2F2"/>
<path d="M29.8686 675.044H29.5925C29.5925 674.352 29.6285 673.673 29.7365 673.006C29.8325 673.661 29.8686 674.34 29.8686 675.044Z" fill="#22A2F2"/>
<path d="M29.8686 659.692H29.5925C29.5925 659 29.6285 658.321 29.7365 657.654C29.8325 658.321 29.8686 658.988 29.8686 659.692Z" fill="#22A2F2"/>
<path d="M29.8686 644.339H29.5925C29.5925 643.648 29.6285 642.969 29.7365 642.302C29.8325 642.969 29.8686 643.636 29.8686 644.339Z" fill="#22A2F2"/>
<path d="M89.9521 703.699C90.0481 704.366 90.0841 705.045 90.0841 705.736H89.8081C89.8081 705.045 89.8441 704.366 89.9521 703.699Z" fill="#22A2F2"/>
<path d="M89.9521 688.346C90.0481 689.013 90.0841 689.692 90.0841 690.383H89.8081C89.8081 689.692 89.8441 689.013 89.9521 688.346Z" fill="#22A2F2"/>
<path d="M89.9521 673.006C90.0481 673.673 90.0841 674.352 90.0841 675.044H89.8081C89.8081 674.34 89.8441 673.661 89.9521 673.006Z" fill="#22A2F2"/>
<path d="M89.9521 657.654C90.0481 658.321 90.0841 659 90.0841 659.692H89.8081C89.8081 658.988 89.8441 658.321 89.9521 657.654Z" fill="#22A2F2"/>
<path d="M90.0841 644.339H89.8081C89.8081 643.648 89.8441 642.969 89.9521 642.302C90.0481 642.969 90.0841 643.636 90.0841 644.339Z" fill="#22A2F2"/>
<path d="M105 690.383C97.3083 690.383 90.9363 696.192 89.9523 703.698C88.9563 696.192 82.5843 690.383 74.8923 690.383H105Z" fill="#22A2F2"/>
<path d="M105 675.043C97.3083 675.043 90.9363 680.852 89.9523 688.358C88.9563 680.852 82.5843 675.043 74.8923 675.043H105Z" fill="#22A2F2"/>
<path d="M105 659.691C97.3083 659.691 90.9363 665.5 89.9523 673.006C88.9563 665.5 82.5843 659.691 74.8923 659.691H105Z" fill="#22A2F2"/>
<path d="M105 644.339C97.3083 644.339 90.9363 650.148 89.9523 657.654C88.9563 650.148 82.5843 644.339 74.8923 644.339H105Z" fill="#22A2F2"/>
<path d="M90.0841 705.736H89.8081C89.8081 705.045 89.8441 704.366 89.9521 703.699C90.0481 704.366 90.0841 705.045 90.0841 705.736Z" fill="#22A2F2"/>
<path d="M90.0841 690.383H89.8081C89.8081 689.692 89.8441 689.013 89.9521 688.346C90.0481 689.013 90.0841 689.692 90.0841 690.383Z" fill="#22A2F2"/>
<path d="M90.0841 675.044H89.8081C89.8081 674.352 89.8441 673.673 89.9521 673.006C90.0481 673.661 90.0841 674.34 90.0841 675.044Z" fill="#22A2F2"/>
<path d="M90.0841 659.692H89.8081C89.8081 659 89.8441 658.321 89.9521 657.654C90.0481 658.321 90.0841 658.988 90.0841 659.692Z" fill="#22A2F2"/>
<path d="M90.0841 644.339H89.8081C89.8081 643.648 89.8441 642.969 89.9521 642.302C90.0481 642.969 90.0841 643.636 90.0841 644.339Z" fill="#22A2F2"/>
<path d="M59.8442 642.302C59.9402 642.969 59.9762 643.648 59.9762 644.339H59.7002C59.7002 643.636 59.7362 642.969 59.8442 642.302Z" fill="#F4F4F4"/>
<path d="M74.8922 628.987C67.2002 628.987 60.8282 634.796 59.8442 642.302C58.8482 634.796 52.4762 628.987 44.7842 628.987H74.8922Z" fill="#F4F4F4"/>
<path d="M59.9762 644.339H59.7002C59.7002 643.648 59.7362 642.969 59.8442 642.302C59.9402 642.969 59.9762 643.636 59.9762 644.339Z" fill="#F4F4F4"/>
<path d="M29.7365 642.302C29.8325 642.969 29.8686 643.648 29.8686 644.339H29.5925C29.5925 643.636 29.6285 642.969 29.7365 642.302Z" fill="#22A2F2"/>
<path d="M44.7842 628.987C37.0923 628.987 30.7202 634.796 29.7362 642.302C28.7402 634.796 22.3683 628.987 14.6763 628.987H44.7842Z" fill="#22A2F2"/>
<path d="M29.8686 644.339H29.5925C29.5925 643.648 29.6285 642.969 29.7365 642.302C29.8325 642.969 29.8686 643.636 29.8686 644.339Z" fill="#22A2F2"/>
<path d="M89.9521 642.302C90.0481 642.969 90.0841 643.648 90.0841 644.339H89.8081C89.8081 643.636 89.8441 642.969 89.9521 642.302Z" fill="#22A2F2"/>
<path d="M105 628.987C97.3083 628.987 90.9363 634.796 89.9523 642.302C88.9563 634.796 82.5843 628.987 74.8923 628.987H105Z" fill="#22A2F2"/>
<path d="M90.0841 644.339H89.8081C89.8081 643.648 89.8441 642.969 89.9521 642.302C90.0481 642.969 90.0841 643.636 90.0841 644.339Z" fill="#22A2F2"/>
<path d="M120 970.53H0V1091.79H120V970.53Z" fill="#001238"/>
<path d="M60.0002 1091.79H0.000244141L30.0002 1061.44L60.0002 1031.1L90.0002 1061.44L120 1091.79H60.0002Z" fill="#22A2F2"/>
<path d="M60 970.53H120L89.9999 1000.85L60 1031.15L30 1000.85L0 970.53H60Z" fill="#F4F4F4"/>
<path d="M80.0521 1091.79V970.53C57.9601 970.53 40.0562 988.634 40.0562 1010.95V1091.79H80.0521Z" fill="#001238"/>
<path d="M120 3137.53H0V3258.8H120V3137.53Z" fill="#001238"/>
<path d="M77.676 3170.88H59.676C59.676 3160.84 67.74 3152.69 77.676 3152.69H104.676V3170.88V3189.07V3207.26V3225.45V3243.64H59.676C59.676 3233.6 67.74 3225.45 77.676 3225.45H59.676C59.676 3215.41 67.74 3207.26 77.676 3207.26H59.676C59.676 3197.22 67.74 3189.07 77.676 3189.07H59.676C59.676 3179.03 67.74 3170.88 77.676 3170.88Z" fill="#22A2F2"/>
<path d="M120 2895H0V3016.27H120V2895Z" fill="#001238"/>
<path d="M22.5 2910.16H30L26.256 2916.73L22.5 2923.29L18.756 2916.73L15 2910.16H22.5Z" fill="#22A2F2"/>
<path d="M37.5002 2910.16H45.0002L41.2562 2916.73L37.5002 2923.29L33.7562 2916.73L30.0002 2910.16H37.5002Z" fill="#F4F4F4"/>
<path d="M52.5003 2910.16H60.0003L56.2563 2916.73L52.5003 2923.29L48.7563 2916.73L45.0002 2910.16H52.5003Z" fill="#22A2F2"/>
<path d="M67.5 2910.16H75L71.256 2916.73L67.5 2923.29L63.756 2916.73L60 2910.16H67.5Z" fill="#F4F4F4"/>
<path d="M82.4997 2910.16H89.9997L86.2557 2916.73L82.4997 2923.29L78.7558 2916.73L74.9998 2910.16H82.4997Z" fill="#22A2F2"/>
<path d="M97.5 2910.16H105L101.256 2916.73L97.5 2923.29L93.756 2916.73L90 2910.16H97.5Z" fill="#F4F4F4"/>
<path d="M22.5 2923.29H30L26.256 2929.85L22.5 2936.41L18.756 2929.85L15 2923.29H22.5Z" fill="#22A2F2"/>
<path d="M37.5002 2923.29H45.0002L41.2562 2929.85L37.5002 2936.41L33.7562 2929.85L30.0002 2923.29H37.5002Z" fill="#F4F4F4"/>
<path d="M52.5003 2923.29H60.0003L56.2563 2929.85L52.5003 2936.41L48.7563 2929.85L45.0002 2923.29H52.5003Z" fill="#22A2F2"/>
<path d="M67.5 2923.29H75L71.256 2929.85L67.5 2936.41L63.756 2929.85L60 2923.29H67.5Z" fill="#F4F4F4"/>
<path d="M82.4997 2923.29H89.9997L86.2557 2929.85L82.4997 2936.41L78.7558 2929.85L74.9998 2923.29H82.4997Z" fill="#22A2F2"/>
<path d="M97.5 2923.29H105L101.256 2929.85L97.5 2936.41L93.756 2929.85L90 2923.29H97.5Z" fill="#F4F4F4"/>
<path d="M22.5 2936.41H30L26.256 2942.98L22.5 2949.54L18.756 2942.98L15 2936.41H22.5Z" fill="#22A2F2"/>
<path d="M37.5002 2936.41H45.0002L41.2562 2942.98L37.5002 2949.54L33.7562 2942.98L30.0002 2936.41H37.5002Z" fill="#F4F4F4"/>
<path d="M52.5003 2936.41H60.0003L56.2563 2942.98L52.5003 2949.54L48.7563 2942.98L45.0002 2936.41H52.5003Z" fill="#22A2F2"/>
<path d="M67.5 2936.41H75L71.256 2942.98L67.5 2949.54L63.756 2942.98L60 2936.41H67.5Z" fill="#F4F4F4"/>
<path d="M82.4997 2936.41H89.9997L86.2557 2942.98L82.4997 2949.54L78.7558 2942.98L74.9998 2936.41H82.4997Z" fill="#22A2F2"/>
<path d="M97.5 2936.41H105L101.256 2942.98L97.5 2949.54L93.756 2942.98L90 2936.41H97.5Z" fill="#F4F4F4"/>
<path d="M22.5 2949.54H30L26.256 2956.11L22.5 2962.67L18.756 2956.11L15 2949.54H22.5Z" fill="#22A2F2"/>
<path d="M37.5002 2949.54H45.0002L41.2562 2956.11L37.5002 2962.67L33.7562 2956.11L30.0002 2949.54H37.5002Z" fill="#F4F4F4"/>
<path d="M52.5003 2949.54H60.0003L56.2563 2956.11L52.5003 2962.67L48.7563 2956.11L45.0002 2949.54H52.5003Z" fill="#22A2F2"/>
<path d="M67.5 2949.54H75L71.256 2956.11L67.5 2962.67L63.756 2956.11L60 2949.54H67.5Z" fill="#F4F4F4"/>
<path d="M82.4997 2949.54H89.9997L86.2557 2956.11L82.4997 2962.67L78.7558 2956.11L74.9998 2949.54H82.4997Z" fill="#22A2F2"/>
<path d="M97.5 2949.54H105L101.256 2956.11L97.5 2962.67L93.756 2956.11L90 2949.54H97.5Z" fill="#F4F4F4"/>
<path d="M22.5 2962.67H30L26.256 2969.24L22.5 2975.8L18.756 2969.24L15 2962.67H22.5Z" fill="#22A2F2"/>
<path d="M37.5002 2962.67H45.0002L41.2562 2969.24L37.5002 2975.8L33.7562 2969.24L30.0002 2962.67H37.5002Z" fill="#F4F4F4"/>
<path d="M52.5003 2962.67H60.0003L56.2563 2969.24L52.5003 2975.8L48.7563 2969.24L45.0002 2962.67H52.5003Z" fill="#22A2F2"/>
<path d="M67.5 2962.67H75L71.256 2969.24L67.5 2975.8L63.756 2969.24L60 2962.67H67.5Z" fill="#F4F4F4"/>
<path d="M82.4997 2962.67H89.9997L86.2557 2969.24L82.4997 2975.8L78.7558 2969.24L74.9998 2962.67H82.4997Z" fill="#22A2F2"/>
<path d="M97.5 2962.67H105L101.256 2969.24L97.5 2975.8L93.756 2969.24L90 2962.67H97.5Z" fill="#F4F4F4"/>
<path d="M22.5 2975.8H30L26.256 2982.36L22.5 2988.93L18.756 2982.36L15 2975.8H22.5Z" fill="#22A2F2"/>
<path d="M37.5002 2975.8H45.0002L41.2562 2982.36L37.5002 2988.93L33.7562 2982.36L30.0002 2975.8H37.5002Z" fill="#F4F4F4"/>
<path d="M52.5003 2975.8H60.0003L56.2563 2982.36L52.5003 2988.93L48.7563 2982.36L45.0002 2975.8H52.5003Z" fill="#22A2F2"/>
<path d="M67.5 2975.8H75L71.256 2982.36L67.5 2988.93L63.756 2982.36L60 2975.8H67.5Z" fill="#F4F4F4"/>
<path d="M82.4997 2975.8H89.9997L86.2557 2982.36L82.4997 2988.93L78.7558 2982.36L74.9998 2975.8H82.4997Z" fill="#22A2F2"/>
<path d="M97.5 2975.8H105L101.256 2982.36L97.5 2988.93L93.756 2982.36L90 2975.8H97.5Z" fill="#F4F4F4"/>
<path d="M22.5 2988.93H30L26.256 2995.49L22.5 3002.05L18.756 2995.49L15 2988.93H22.5Z" fill="#22A2F2"/>
<path d="M37.5002 2988.93H45.0002L41.2562 2995.49L37.5002 3002.05L33.7562 2995.49L30.0002 2988.93H37.5002Z" fill="#F4F4F4"/>
<path d="M52.5003 2988.93H60.0003L56.2563 2995.49L52.5003 3002.05L48.7563 2995.49L45.0002 2988.93H52.5003Z" fill="#22A2F2"/>
<path d="M67.5 2988.93H75L71.256 2995.49L67.5 3002.05L63.756 2995.49L60 2988.93H67.5Z" fill="#F4F4F4"/>
<path d="M82.4997 2988.93H89.9997L86.2557 2995.49L82.4997 3002.05L78.7558 2995.49L74.9998 2988.93H82.4997Z" fill="#22A2F2"/>
<path d="M97.5 2988.93H105L101.256 2995.49L97.5 3002.05L93.756 2995.49L90 2988.93H97.5Z" fill="#F4F4F4"/>
<path d="M120 3258.8H0V3380.06H120V3258.8Z" fill="#001238"/>
<path d="M15 3319.44C15 3294.33 35.148 3273.97 60 3273.97C84.852 3273.97 105 3294.33 105 3319.44C105 3339.24 92.484 3356.09 75 3362.32V3289.12C58.44 3289.12 45 3302.69 45 3319.44V3362.32C27.516 3356.09 15 3339.24 15 3319.44Z" fill="#22A2F2"/>
<path d="M120 3016.27H0V3137.53H120V3016.27Z" fill="#001238"/>
<path d="M105 3031.41V3122.36H75V3046.57C58.44 3046.57 45 3060.15 45 3076.89V3122.36H15V3031.41H105Z" fill="#22A2F2"/>
<path d="M75.0003 3122.36H45.0002V3137.52H75.0003V3122.36Z" fill="#F4F4F4"/>
<path d="M120 1213H0V1334.27H120V1213Z" fill="#001238"/>
<path d="M69.5038 1313.02H50.5078V1334.26H69.5038V1313.02Z" fill="#F4F4F4"/>
<path d="M69.504 1313.02V1276.68C59.004 1276.68 50.508 1285.27 50.508 1295.87V1313.02H15L37.5 1273.63L60 1234.25L82.5 1273.63L105 1313.02H69.504Z" fill="#22A2F2"/>
<path d="M120 1334H0V1455.27H120V1334Z" fill="#001238"/>
<path d="M33 1412.82V1394.63C23.064 1394.63 15 1402.78 15 1412.82V1440.11H33H51H69H87H105V1394.63C95.064 1394.63 87 1402.78 87 1412.82V1394.63C77.064 1394.63 69 1402.78 69 1412.82V1394.63C59.064 1394.63 51 1402.78 51 1412.82V1394.63C41.064 1394.63 33 1402.78 33 1412.82Z" fill="#22A2F2"/>
<path d="M87 1376.44V1394.63C96.936 1394.63 105 1386.48 105 1376.44V1349.16H87H69H51H33H15V1394.63C24.936 1394.63 33 1386.48 33 1376.44V1394.63C42.936 1394.63 51 1386.48 51 1376.44V1394.63C60.936 1394.63 69 1386.48 69 1376.44V1394.63C78.936 1394.63 87 1386.48 87 1376.44Z" fill="#F4F4F4"/>
<path d="M120 1455H0V1576.27H120V1455Z" fill="#001238"/>
<path d="M120 1455H60V1576.26H120V1455Z" fill="#22A2F2"/>
<path d="M120 1576H0V1697.27H120V1576Z" fill="#001238"/>
<path d="M70.5241 1680.83C71.6041 1680.57 72.6721 1680.26 73.7281 1679.92C71.6161 1679.5 69.6001 1678.47 67.9561 1676.81C68.8801 1677.74 69.6241 1678.81 70.1521 1679.95C70.2961 1680.24 70.4161 1680.54 70.5241 1680.83Z" fill="#22A2F2"/>
<path d="M102.852 1650.52C103.188 1649.44 103.5 1648.35 103.752 1647.26C102.3 1646.7 100.932 1645.85 99.7681 1644.66C100.692 1645.59 101.436 1646.66 101.964 1647.8C102.384 1648.66 102.672 1649.58 102.852 1650.52Z" fill="#22A2F2"/>
<path d="M52.0439 1660.74C52.9679 1661.67 53.7119 1662.74 54.2399 1663.88C56.2439 1668.1 55.5119 1673.32 52.0439 1676.82C55.5119 1673.32 60.6719 1672.58 64.8479 1674.6C65.9759 1675.15 67.0199 1675.89 67.9559 1676.82C63.5639 1672.38 63.5639 1665.18 67.9559 1660.74C63.5639 1665.18 56.4359 1665.18 52.0439 1660.74Z" fill="#22A2F2"/>
<path d="M67.9557 1644.66C67.0317 1643.73 65.9757 1642.97 64.8597 1642.44C60.6717 1640.42 55.5117 1641.17 52.0557 1644.66L67.9677 1628.58C63.5637 1633.02 63.5637 1640.22 67.9557 1644.66Z" fill="#22A2F2"/>
<path d="M49.4879 1680.85C50.0399 1679.38 50.8799 1678 52.0559 1676.82C50.4119 1678.48 48.3959 1679.51 46.2839 1679.94C47.3279 1680.28 48.4079 1680.58 49.4879 1680.85Z" fill="#22A2F2"/>
<path d="M102.852 1622.75C102.432 1624.88 101.412 1626.92 99.7798 1628.58C100.944 1627.4 102.3 1626.54 103.752 1626C103.488 1624.91 103.188 1623.83 102.852 1622.75Z" fill="#22A2F2"/>
<path d="M86.0516 1673.7C88.0676 1672.25 90.0116 1670.61 91.8236 1668.78C93.6476 1666.94 95.2676 1664.97 96.7196 1662.92C92.5316 1664.97 87.3476 1664.24 83.8796 1660.73C84.8036 1661.66 85.5476 1662.73 86.0756 1663.87C87.5276 1666.97 87.5156 1670.6 86.0516 1673.7Z" fill="#22A2F2"/>
<path d="M96.6724 1610.28C92.4844 1608.26 87.3244 1609.01 83.8684 1612.5L91.8244 1604.46C93.6364 1606.29 95.2564 1608.24 96.6724 1610.28Z" fill="#22A2F2"/>
<path d="M52.0443 1660.74C51.1203 1659.81 50.0643 1659.05 48.9483 1658.52C44.7603 1656.5 39.6003 1657.25 36.1443 1660.74L52.0563 1644.66C47.6523 1649.1 47.6523 1656.29 52.0443 1660.74Z" fill="#22A2F2"/>
<path d="M33.9725 1673.72C31.9445 1672.25 30.0005 1670.61 28.1885 1668.78L36.1445 1660.74C32.6645 1664.26 31.9565 1669.48 33.9725 1673.72Z" fill="#22A2F2"/>
<path d="M83.8684 1644.66C87.3364 1641.16 92.4964 1640.42 96.6724 1642.44C97.8004 1642.99 98.8444 1643.73 99.7804 1644.66C95.3884 1640.22 95.3884 1633.02 99.7804 1628.58C95.3884 1633.02 88.2604 1633.02 83.8684 1628.58C84.7924 1629.51 85.5364 1630.58 86.0644 1631.72C88.0684 1635.94 87.3364 1641.16 83.8684 1644.66Z" fill="#22A2F2"/>
<path d="M67.9561 1644.66C68.8801 1645.59 69.6241 1646.66 70.1521 1647.8C72.1561 1652.02 71.4241 1657.24 67.9561 1660.74C71.4241 1657.24 76.5841 1656.5 80.7601 1658.52C81.8881 1659.07 82.9321 1659.81 83.8681 1660.74C79.4761 1656.3 79.4761 1649.1 83.8681 1644.66C79.4761 1649.1 72.3481 1649.1 67.9561 1644.66Z" fill="#22A2F2"/>
<path d="M83.8683 1628.58C82.9443 1627.65 81.8883 1626.9 80.7723 1626.36C76.5843 1624.34 71.4243 1625.09 67.9683 1628.58L83.8803 1612.5C79.4763 1616.94 79.4643 1624.14 83.8683 1628.58Z" fill="#22A2F2"/>
<path d="M67.9679 1628.58L52.0559 1644.66C55.5239 1641.16 56.2439 1635.95 54.2519 1631.72C53.7119 1630.59 52.9799 1629.53 52.0439 1628.58C56.4359 1633.02 63.5639 1633.02 67.9679 1628.58Z" fill="#F4F4F4"/>
<path d="M20.2198 1628.58C19.2958 1627.65 18.2398 1626.9 17.1238 1626.36C16.8358 1626.23 16.5358 1626.09 16.2358 1625.99C16.4878 1624.91 16.7998 1623.83 17.1478 1622.75C17.5678 1624.88 18.5878 1626.93 20.2198 1628.58Z" fill="#F4F4F4"/>
<path d="M17.148 1650.49C16.812 1649.43 16.5 1648.35 16.248 1647.26C17.7 1646.7 19.068 1645.85 20.232 1644.66C18.588 1646.32 17.556 1648.36 17.148 1650.49Z" fill="#F4F4F4"/>
<path d="M91.8244 1604.47L83.8684 1612.51C87.3364 1609.01 88.0564 1603.81 86.0644 1599.57C88.0924 1601 90.0124 1602.64 91.8244 1604.47Z" fill="#F4F4F4"/>
<path d="M52.044 1596.42C51.12 1595.49 50.064 1594.74 48.948 1594.2C48.084 1593.79 47.172 1593.49 46.248 1593.3C47.316 1592.97 48.408 1592.65 49.488 1592.4C50.028 1593.86 50.88 1595.25 52.044 1596.42Z" fill="#F4F4F4"/>
<path d="M73.7283 1593.32C71.6163 1593.74 69.6003 1594.77 67.9683 1596.43C69.1323 1595.26 69.9843 1593.89 70.5243 1592.43C71.5923 1592.67 72.6603 1592.98 73.7283 1593.32Z" fill="#F4F4F4"/>
<path d="M36.1322 1612.5C35.2082 1611.57 34.1522 1610.82 33.0362 1610.28C29.9642 1608.8 26.3762 1608.81 23.3162 1610.29C24.7562 1608.26 26.3762 1606.3 28.1882 1604.46C30.0002 1602.63 31.9442 1600.98 33.9722 1599.53C31.9442 1603.76 32.6642 1609 36.1322 1612.5Z" fill="#F4F4F4"/>
<path d="M52.0556 1644.66L36.1436 1660.74C39.6116 1657.24 40.3316 1652.03 38.3396 1647.8C37.7996 1646.67 37.0676 1645.61 36.1316 1644.66C40.5236 1649.1 47.6516 1649.1 52.0556 1644.66Z" fill="#F4F4F4"/>
<path d="M52.0436 1628.58C51.1196 1627.65 50.0636 1626.9 48.9476 1626.36C44.7596 1624.34 39.5996 1625.09 36.1436 1628.58C39.6116 1625.08 40.3316 1619.87 38.3396 1615.64C37.7996 1614.51 37.0676 1613.45 36.1316 1612.5C40.5236 1616.94 47.6516 1616.94 52.0556 1612.5C47.6516 1616.94 47.6516 1624.14 52.0436 1628.58Z" fill="#F4F4F4"/>
<path d="M36.132 1644.66C35.208 1643.73 34.152 1642.97 33.036 1642.44C28.848 1640.42 23.688 1641.17 20.232 1644.66C23.7 1641.16 24.42 1635.95 22.428 1631.72C21.888 1630.59 21.156 1629.53 20.22 1628.58C24.612 1633.02 31.74 1633.02 36.144 1628.58C31.752 1633.02 31.74 1640.22 36.132 1644.66Z" fill="#F4F4F4"/>
<path d="M36.144 1660.74L28.188 1668.78C26.364 1666.94 24.744 1664.97 23.304 1662.93C27.492 1664.97 32.664 1664.26 36.144 1660.74Z" fill="#F4F4F4"/>
<path d="M67.9559 1612.5C67.0319 1611.57 65.9759 1610.82 64.8599 1610.28C60.6719 1608.26 55.5119 1609.01 52.0559 1612.5C55.5239 1609 56.2439 1603.79 54.2519 1599.56C53.7119 1598.43 52.9799 1597.37 52.0439 1596.42C56.4359 1600.86 63.5639 1600.86 67.9679 1596.42C63.5639 1600.87 63.5639 1608.06 67.9559 1612.5Z" fill="#F4F4F4"/>
<path d="M83.8681 1612.5L67.9561 1628.58C71.4241 1625.08 72.1441 1619.87 70.1521 1615.64C69.6121 1614.51 68.8801 1613.45 67.9441 1612.5C72.3481 1616.94 79.4761 1616.94 83.8681 1612.5Z" fill="#F4F4F4"/>
<path d="M120 1697H0V1818.27H120V1697Z" fill="#001238"/>
<path d="M104.988 1712.16V1803.11H74.9883V1727.32C58.4283 1727.32 44.9883 1740.9 44.9883 1757.63V1803.11H14.9883V1712.16H104.988Z" fill="#22A2F2"/>
<path d="M75.0002 1803.11H45.0002V1818.27H75.0002V1803.11Z" fill="#F4F4F4"/>
</svg>
