<svg width="145" height="98" viewBox="0 0 145 98" fill="none" xmlns="http://www.w3.org/2000/svg">
<g clip-path="url(#clip0_1_77)">
<path d="M24.8412 31.2689C24.8412 31.0266 24.8412 30.8617 24.8412 30.6968C24.8412 29.0982 24.8412 27.3885 24.8412 25.7899C24.8267 25.5103 24.8735 25.231 24.9782 24.9717C25.0829 24.7123 25.243 24.4792 25.4472 24.2889C25.7602 24.0012 26.1092 23.7557 26.4852 23.5585C27.3409 23.1568 28.2622 22.915 29.2041 22.8451C29.3578 22.8329 29.5123 22.8329 29.6661 22.8451C29.6661 23.0302 29.6661 23.2186 29.6661 23.3835C29.6661 25.0158 29.6661 26.6481 29.6661 28.2804C29.6925 28.49 29.6723 28.7029 29.6068 28.9037C29.5414 29.1045 29.4324 29.2882 29.2878 29.4415C29.0631 29.6926 28.7983 29.9041 28.5043 30.0675C27.4127 30.754 26.1705 31.0401 24.8412 31.2689Z" fill="#22A2F2"/>
<path d="M50.1276 9.08691C50.1276 9.31577 50.1276 9.48405 50.1276 9.64896C50.1276 11.1634 50.1276 12.7553 50.1276 14.2698C50.1394 14.5497 50.0849 14.8285 49.9685 15.083C49.852 15.3376 49.677 15.5606 49.4579 15.7338C49.0393 16.075 48.5691 16.3465 48.065 16.5382C47.3766 16.8244 46.6592 17.0343 45.9255 17.1642C45.7741 17.1921 45.6206 17.2067 45.4667 17.2079C45.4667 17.0632 45.4667 16.8545 45.4667 16.7266C45.4667 15.1953 45.4667 13.5866 45.4667 12.0553C45.4568 11.7141 45.5285 11.3755 45.676 11.068C45.8234 10.7605 46.0422 10.4932 46.3139 10.2884C47.0907 9.66578 48.1119 9.40327 49.0628 9.23836C49.3943 9.16769 49.7593 9.14076 50.1276 9.08691Z" fill="#22A2F2"/>
<path d="M71.2488 85.4368C71.2488 85.1945 71.2488 85.0431 71.2488 84.895C71.2488 83.6363 71.2722 82.2632 71.2488 81.0045C71.2639 80.6901 71.3502 80.3832 71.501 80.1074C71.6519 79.8315 71.8634 79.5939 72.1193 79.4126C72.9933 78.7395 74.1886 78.5005 75.2634 78.4399V78.5005C75.2802 78.6553 75.2634 78.8371 75.2634 79.0154C75.2634 80.291 75.2467 81.654 75.2634 82.9295C75.2813 83.1829 75.2393 83.4369 75.141 83.6708C75.0426 83.9047 74.8907 84.112 74.6975 84.2757C74.4973 84.4309 74.2832 84.5673 74.058 84.683C73.1656 85.0776 72.2181 85.3318 71.2488 85.4368Z" fill="#22A2F2"/>
<path d="M85.0005 94.6417V94.0763C85.0005 92.8378 85.0206 91.4512 85.0005 90.2126C85.0109 89.9183 85.0892 89.6304 85.2293 89.3717C85.3693 89.1129 85.5672 88.8904 85.8074 88.7217C86.4378 88.2668 87.1685 87.9723 87.937 87.8635C88.2813 87.7896 88.6329 87.7546 88.985 87.7592C88.985 87.9207 88.985 88.1967 88.985 88.3616C88.985 89.6203 88.9649 90.8757 88.985 92.131C88.9928 92.3614 88.9503 92.5907 88.8607 92.8029C88.771 93.0151 88.6363 93.205 88.466 93.3594C88.1782 93.6554 87.8374 93.894 87.4615 94.0628C86.8942 94.2781 86.3109 94.448 85.717 94.571C85.4803 94.613 85.2408 94.6366 85.0005 94.6417Z" fill="#22A2F2"/>
<path d="M40.096 15.5992C40.096 16.6089 40.096 17.7128 40.096 18.7325C40.1011 18.9183 40.0639 19.1028 39.9873 19.2719C39.9107 19.441 39.7967 19.5904 39.6541 19.7085C38.9174 20.3514 37.8158 20.5836 36.8348 20.7182V20.1932C36.8348 19.2071 36.8549 18.1436 36.8348 17.1642C36.8273 16.8888 36.8944 16.6166 37.0289 16.3765C37.1633 16.1364 37.3601 15.9376 37.5982 15.8012C38.361 15.3615 39.2176 15.1122 40.096 15.0742V15.5992Z" fill="#22A2F2"/>
<path d="M41.6531 22.825V22.4278C41.6531 21.3408 41.6832 20.1191 41.6832 19.032C41.6806 18.878 41.709 18.725 41.7665 18.5822C41.824 18.4393 41.9096 18.3096 42.018 18.2007C42.7647 17.43 43.8897 17.2651 44.9311 17.1709C44.9311 17.3829 44.9311 17.5074 44.9311 17.6724C44.9311 18.682 44.9311 19.7556 44.9311 20.7754C44.9359 20.9694 44.8989 21.1622 44.8226 21.3406C44.7463 21.5189 44.6325 21.6786 44.4891 21.8086C43.7357 22.4346 42.5035 22.7038 41.6531 22.825Z" fill="#22A2F2"/>
<path d="M82.516 79.7124V80.2509C82.516 81.0317 82.4992 81.8125 82.516 82.6067C82.5194 82.8295 82.4665 83.0495 82.3623 83.2461C82.2581 83.4427 82.1059 83.6095 81.92 83.7308C81.2591 84.0975 80.5314 84.3264 79.7804 84.4039C79.7804 84.2424 79.7804 84.1179 79.7804 83.99C79.7804 83.1755 79.7804 82.2534 79.7804 81.4389C79.7777 81.2662 79.8133 81.0951 79.8845 80.9379C79.9557 80.7808 80.0609 80.6415 80.1923 80.5302C80.8016 79.9614 81.699 79.7831 82.516 79.7124Z" fill="#22A2F2"/>
<path d="M61.6091 79.0895C61.6091 78.2649 61.6091 77.4067 61.6091 76.6798C61.6091 76.3735 61.9942 76.1043 62.242 75.9394C62.6622 75.7016 63.1396 75.5852 63.6215 75.6028V75.724C63.6215 76.4206 63.6215 77.1812 63.6215 77.8813C63.6198 78.0219 63.5842 78.1599 63.5177 78.2836C63.4512 78.4073 63.3558 78.5129 63.2398 78.5914C62.7342 78.8638 62.18 79.0331 61.6091 79.0895Z" fill="#22A2F2"/>
<path opacity="0.32" d="M35.9074 29.1221C35.606 29.1894 35.3047 29.2634 34.9833 29.361C34.6617 29.4638 34.3493 29.5933 34.0491 29.7481C34.6416 29.466 35.2654 29.2558 35.9074 29.1221Z" fill="#181B24"/>
<path opacity="0.32" d="M36.8315 28.9604L37.0994 28.9268L36.8315 28.9604Z" fill="#181B24"/>
<path opacity="0.32" d="M35.9944 29.1053C36.202 29.0615 36.3995 29.0245 36.5803 28.9976C36.3861 29.0278 36.1886 29.0615 35.9944 29.1053Z" fill="#181B24"/>
<path d="M0 48.5205C0.063618 48.2075 0.0368315 47.8474 0.0703146 47.5108C0.200886 46.0563 0.503246 44.6226 0.971011 43.24C2.25007 39.5817 4.72447 37.182 8.37079 35.994C9.65621 35.5813 10.9859 35.3237 12.3318 35.2267C13.9751 35.0594 15.6331 35.108 17.2639 35.3714C20.7227 36.0075 23.1369 37.946 24.4594 41.251C25.0234 42.7302 25.3882 44.2786 25.5443 45.855C25.7334 47.7873 25.8039 49.7295 25.7552 51.6706C25.7552 51.7716 25.7352 51.8692 25.7184 52.0307C24.5867 52.0812 23.465 52.0307 22.3433 52.0509C21.2216 52.0711 20.0865 52.0509 18.9582 52.0509H5.39079C5.3663 52.1901 5.34953 52.3305 5.34056 52.4716C5.35109 53.581 5.54108 54.6813 5.90308 55.7294C6.47257 57.3844 7.6097 58.7815 9.11077 59.6704C10.3819 60.4123 11.7818 60.9046 13.2359 61.121C15.1001 61.4163 16.9913 61.5021 18.8745 61.3767C20.4395 61.294 21.9982 61.1164 23.542 60.845C23.6692 60.8248 23.8032 60.8282 23.994 60.8147C24.0331 60.9954 24.0588 61.1788 24.071 61.3633C24.0732 62.3058 23.8565 63.2357 23.4382 64.0792C23.2582 64.5016 22.9637 64.8647 22.5884 65.1271C22.2131 65.3895 21.772 65.5407 21.3154 65.5634C19.1516 65.7636 16.9791 65.8546 14.8063 65.8361C12.8667 65.8355 10.937 65.5602 9.07393 65.0182C4.85171 63.7393 2.09605 60.9493 0.803596 56.6785C0.427719 55.4054 0.18092 54.0975 0.0669663 52.7745C0.0631012 52.5129 0.0407225 52.252 0 51.9937L0 48.5205ZM5.3573 47.4536C5.89638 47.5714 20.4046 47.5579 20.7997 47.4536C20.8187 47.3911 20.8311 47.3268 20.8366 47.2618C20.8583 46.0005 20.6843 44.7436 20.3209 43.5361C20.063 42.605 19.5541 41.7637 18.8504 41.105C18.1466 40.4464 17.2755 39.996 16.3331 39.8038C14.407 39.3342 12.3927 39.3748 10.4869 39.9216C9.47597 40.1875 8.54451 40.6966 7.7728 41.4048C7.00109 42.1131 6.41228 42.9993 6.0571 43.9871C5.74992 44.7768 5.54293 45.6023 5.44101 46.4439C5.40083 46.7805 5.37405 47.1171 5.3573 47.4536Z" fill="#181B24"/>
<path d="M98.1425 65.8158H92.7852C92.7852 65.6105 92.7551 65.4153 92.7551 65.2167C92.7551 62.8833 92.7551 60.551 92.7551 58.2198V46.5785C92.7732 45.6063 92.6606 44.6361 92.4202 43.6942C92.3257 43.3322 92.2071 42.9769 92.0653 42.6307C91.7795 41.8894 91.3032 41.2374 90.685 40.7414C90.0668 40.2454 89.3288 39.923 88.5462 39.8071C86.1928 39.3822 83.7676 39.9096 81.7994 41.2744C81.1058 41.7488 80.5189 42.3641 80.0765 43.0806C79.6341 43.7971 79.3462 44.5989 79.2312 45.4342C79.1297 46.0718 79.0815 46.7169 79.0872 47.3626C79.0872 53.2725 79.0872 59.1801 79.0872 65.0855C79.0872 65.3177 79.0672 65.5533 79.0571 65.8124H73.7869C73.7574 65.7016 73.7339 65.5892 73.7166 65.4759C73.7166 65.3412 73.7166 65.2032 73.7166 65.0686V42.1259C73.9576 41.8499 74.1786 41.5706 74.423 41.3148C77.4728 38.0429 81.5489 35.9243 85.968 35.3141C87.7012 35.0329 89.4698 35.0568 91.1947 35.3848C92.279 35.5777 93.3114 35.9954 94.2263 36.6114C95.1411 37.2273 95.9184 38.0279 96.5085 38.9623C96.5688 39.0599 96.6425 39.1541 96.7429 39.2989C96.917 39.1844 97.0777 39.0801 97.2452 38.9623C98.9386 37.7559 100.78 36.7741 102.723 36.041C104.925 35.2067 107.301 34.944 109.631 35.2771C112.791 35.7482 115.021 37.4377 116.213 40.4633C116.715 41.756 117.017 43.1178 117.111 44.502C117.184 45.4174 117.215 46.3362 117.215 47.2549C117.215 53.2119 117.215 59.17 117.215 65.1292V65.7619C116.769 65.873 112.46 65.8898 111.874 65.7922C111.874 65.5903 111.844 65.3749 111.844 65.1595V49.9272C111.844 48.6685 111.844 47.4098 111.844 46.1477C111.843 45.2278 111.714 44.3126 111.462 43.4284C110.792 41.1263 109.195 39.8474 106.831 39.6893C104.763 39.5491 102.706 40.0979 100.979 41.2509C99.3044 42.3245 98.4606 43.9029 98.2329 45.8515C98.1788 46.3421 98.1531 46.8354 98.1559 47.329C98.1559 53.2366 98.1559 59.1442 98.1559 65.0518L98.1425 65.8158Z" fill="#181B24"/>
<path d="M67.9944 60.5788C68.1685 61.8173 68.2221 62.9986 67.7433 64.1362C67.6211 64.4549 67.4146 64.7341 67.1461 64.9434C66.8776 65.1528 66.5573 65.2845 66.2198 65.3242C63.2453 65.8296 60.2199 65.963 57.2128 65.7213C55.5651 65.5933 53.9392 65.2632 52.3711 64.7386C48.092 63.2645 45.3598 60.3129 44.1443 55.9176C43.4892 53.3753 43.2628 50.7406 43.4747 48.123C43.5501 46.8302 43.7748 45.5506 44.1443 44.3099C44.6157 42.608 45.4694 41.0375 46.6397 39.7194C47.81 38.4013 49.2656 37.3708 50.8945 36.7072C52.7002 35.9466 54.6127 35.4731 56.5632 35.3038C59.5663 35.0186 62.5926 35.0977 65.5769 35.5394C65.9201 35.5845 66.2476 35.7116 66.5319 35.9101C66.8162 36.1086 67.049 36.3727 67.2109 36.6803C67.5771 37.3536 67.8049 38.0941 67.8805 38.8578C67.9475 39.339 67.9709 39.9145 68.0178 40.4867C67.75 40.4429 67.5591 40.3319 67.3716 40.2915C64.6865 39.7036 61.9372 39.4661 59.1917 39.5847C57.7928 39.6321 56.4066 39.8675 55.0699 40.2847C51.7584 41.3483 49.7126 43.5796 49.0429 47.0427C48.546 49.5776 48.676 52.1963 49.4213 54.669C50.4425 58.0345 52.7696 60.0538 56.0911 60.9187C58.0109 61.3773 59.9893 61.5373 61.9574 61.3933C63.8424 61.3005 65.7162 61.0483 67.5591 60.6394C67.683 60.6158 67.8035 60.6091 67.9944 60.5788Z" fill="#181B24"/>
<path d="M32.3044 39.1476C32.3044 39.4538 32.3044 39.7601 32.3044 40.0664C32.3044 48.1167 32.3044 55.2112 32.3044 63.2884C32.3464 64.566 32.2826 65.8448 32.1136 67.1117C31.6816 69.7469 30.7274 72.1599 28.9628 74.1793C28.9064 74.255 28.8538 74.3337 28.8054 74.4148L33.2319 77.4438C33.2926 77.4144 33.3499 77.3782 33.4027 77.3361C33.4964 77.2419 33.5868 77.1375 33.6772 77.0366C34.8568 75.6735 35.7741 74.1021 36.3827 72.4023C37.3227 69.7162 37.7763 66.8825 37.722 64.0356C37.722 54.4035 37.722 45.7171 37.722 36.085C37.3168 38.7303 32.3044 39.1476 32.3044 39.1476Z" fill="#181B24"/>
<path d="M32.3047 38.2051C32.3047 38.2051 37.3272 37.7844 37.7156 35.1392C37.7156 32.7833 37.7156 28.8726 37.7156 28.8726C37.7156 28.8726 32.9141 29.061 32.3114 31.6794L32.3047 38.2051Z" fill="#22A2F2"/>
<path d="M143.683 37.465C142.74 32.403 140.159 27.7965 136.34 24.363C132.165 20.4469 126.725 18.1764 121.018 17.9685C118.811 17.87 116.601 18.0876 114.455 18.6147C110.96 19.4544 107.694 21.0637 104.893 23.3264C104.755 23.4375 104.608 23.5351 104.467 23.636C104.373 23.4387 104.294 23.2338 104.233 23.0235C103.559 20.7196 102.635 18.4973 101.477 16.3968C97.9883 10.1942 93.083 5.51945 86.6041 2.58808C83.6629 1.25983 80.5211 0.436216 77.3091 0.151448C76.7567 0.100966 75.5881 0 74.8548 0C74.1215 0 72.9061 0 72.6918 0C65.163 0.490145 58.0819 3.7671 52.8162 9.19796C52.1298 9.89462 51.4769 10.7326 50.8072 11.4529C50.8072 12.6207 50.8072 13.8087 50.8072 14.9564C50.8199 15.2364 50.7657 15.5154 50.6492 15.7701C50.5327 16.0248 50.3573 16.2477 50.1376 16.4204L50.1074 16.4439V17.4536C50.1074 18.2882 50.1074 19.1363 50.1074 19.9575V20.4792C51.4114 20.3229 52.6782 19.9391 53.8508 19.345C54.101 19.1889 54.3354 19.0086 54.5506 18.8065C54.7724 18.6335 54.9492 18.409 55.0658 18.1523C55.1825 17.8955 55.2355 17.6142 55.2203 17.3324C55.2203 16.8747 55.2203 16.417 55.2203 15.9862C57.5021 13.1373 60.292 10.7405 63.4471 8.91862V8.33976C63.4471 7.55559 63.4471 6.77142 63.4471 5.98389C63.4375 5.68491 63.4948 5.38758 63.6148 5.11381C63.7348 4.84005 63.9143 4.59684 64.1402 4.4021C64.4753 4.13881 64.8379 3.91311 65.2217 3.72899C66.1073 3.35853 67.0496 3.14339 68.0075 3.09291C68.0678 3.09291 68.0075 4.35835 68.0075 4.95068C68.0075 5.54301 67.9774 6.88585 68.0075 6.87912C68.1682 6.83873 68.8546 6.64353 69.012 6.59305C71.3177 5.86886 73.7152 5.48234 76.1305 5.44541C78.6142 5.37019 81.0956 5.65815 83.4968 6.30025C90.314 8.1008 95.6077 11.9913 99.6658 17.7733C101.481 20.3763 102.875 23.2511 103.798 26.2914C103.861 26.4934 103.938 26.6919 104.035 26.9645C106.586 24.8186 109.579 23.2681 112.798 22.4244C115.929 21.6093 119.205 21.523 122.374 22.172C125.618 22.8126 128.676 24.1829 131.317 26.1804C133.924 28.1176 136.05 30.6343 137.529 33.534C140.331 38.9727 140.73 44.5628 139.072 50.4895C136.568 58.385 131.07 63.2448 123.265 65.5233C124.674 74.9467 121.155 83.3033 114.368 88.8598C106.838 94.635 98.3466 95.3552 89.5908 91.9325C89.5204 92.3397 89.6745 92.9051 89.5137 93.2551C89.2964 93.6602 88.9579 93.9863 88.5461 94.1874C88.7102 94.2917 89.0684 94.524 89.2425 94.6283C90.0227 95.0322 90.7861 95.4697 91.5864 95.823C94.4524 97.0942 97.5661 97.7015 100.697 97.6C101.964 97.5581 103.225 97.4095 104.467 97.1558C112.768 95.4158 118.972 90.7041 122.99 83.162C125.753 77.9757 126.573 72.4933 125.726 66.6709C125.706 66.5262 125.702 66.3815 125.689 66.2166C125.89 66.1526 126.047 66.0954 126.205 66.0517C130.841 64.8225 134.993 62.2007 138.108 58.5365C143.348 52.4449 145.166 45.3638 143.683 37.465Z" fill="#22A2F2"/>
</g>
<defs>
<clipPath id="clip0_1_77">
<rect width="144.182" height="97.6" fill="white"/>
</clipPath>
</defs>
</svg>
