<svg width="1212" height="60" viewBox="0 0 1212 60" fill="none" xmlns="http://www.w3.org/2000/svg">
<path d="M600.001 0.331108L600.001 59.9277L660.001 59.9277L660.001 0.331105L600.001 0.331108Z" fill="#001238"/>
<path d="M607.501 48.7532L607.501 45.0284L610.753 46.8879L613.999 48.7532L610.753 50.6126L607.501 52.478L607.501 48.7532Z" fill="#22A2F2"/>
<path d="M607.501 41.304L607.501 37.5792L610.753 39.4386L613.999 41.304L610.753 43.1634L607.501 45.0288L607.501 41.304Z" fill="#F4F4F4"/>
<path d="M607.501 33.8543L607.501 30.1295L610.753 31.9889L613.999 33.8543L610.753 35.7137L607.501 37.5791L607.501 33.8543Z" fill="#22A2F2"/>
<path d="M607.501 26.4051L607.501 22.6803L610.753 24.5397L613.999 26.4051L610.753 28.2645L607.501 30.1299L607.501 26.4051Z" fill="#F4F4F4"/>
<path d="M607.501 18.9554L607.501 15.2306L610.753 17.09L613.999 18.9554L610.753 20.8148L607.501 22.6802L607.501 18.9554Z" fill="#22A2F2"/>
<path d="M607.501 11.5052L607.501 7.7804L610.753 9.63981L613.999 11.5052L610.753 13.3646L607.501 15.23L607.501 11.5052Z" fill="#F4F4F4"/>
<path d="M613.999 48.7532L613.999 45.0284L617.245 46.8879L620.491 48.7532L617.245 50.6126L613.999 52.478L613.999 48.7532Z" fill="#22A2F2"/>
<path d="M613.999 41.304L613.999 37.5792L617.245 39.4386L620.491 41.304L617.245 43.1634L613.999 45.0288L613.999 41.304Z" fill="#F4F4F4"/>
<path d="M613.999 33.8543L613.999 30.1295L617.245 31.9889L620.491 33.8543L617.245 35.7137L613.999 37.5791L613.999 33.8543Z" fill="#22A2F2"/>
<path d="M613.999 26.4051L613.999 22.6803L617.245 24.5397L620.491 26.4051L617.245 28.2645L613.999 30.1299L613.999 26.4051Z" fill="#F4F4F4"/>
<path d="M613.999 18.9554L613.999 15.2306L617.245 17.09L620.491 18.9554L617.245 20.8148L613.999 22.6802L613.999 18.9554Z" fill="#22A2F2"/>
<path d="M613.999 11.5052L613.999 7.7804L617.245 9.63981L620.491 11.5052L617.245 13.3646L613.999 15.23L613.999 11.5052Z" fill="#F4F4F4"/>
<path d="M620.491 48.7532L620.491 45.0284L623.743 46.8879L626.989 48.7532L623.743 50.6126L620.491 52.478L620.491 48.7532Z" fill="#22A2F2"/>
<path d="M620.491 41.304L620.491 37.5792L623.743 39.4386L626.989 41.304L623.743 43.1634L620.491 45.0288L620.491 41.304Z" fill="#F4F4F4"/>
<path d="M620.491 33.8543L620.491 30.1295L623.743 31.9889L626.989 33.8543L623.743 35.7137L620.491 37.5791L620.491 33.8543Z" fill="#22A2F2"/>
<path d="M620.491 26.4051L620.491 22.6803L623.743 24.5397L626.989 26.4051L623.743 28.2645L620.491 30.1299L620.491 26.4051Z" fill="#F4F4F4"/>
<path d="M620.491 18.9554L620.491 15.2306L623.743 17.09L626.989 18.9554L623.743 20.8148L620.491 22.6802L620.491 18.9554Z" fill="#22A2F2"/>
<path d="M620.491 11.5052L620.491 7.7804L623.743 9.63981L626.989 11.5052L623.743 13.3646L620.491 15.23L620.491 11.5052Z" fill="#F4F4F4"/>
<path d="M626.989 48.7532L626.989 45.0284L630.235 46.8879L633.481 48.7532L630.235 50.6126L626.989 52.478L626.989 48.7532Z" fill="#22A2F2"/>
<path d="M626.989 41.304L626.989 37.5792L630.235 39.4386L633.481 41.304L630.235 43.1634L626.989 45.0288L626.989 41.304Z" fill="#F4F4F4"/>
<path d="M626.989 33.8543L626.989 30.1295L630.235 31.9889L633.481 33.8543L630.235 35.7137L626.989 37.5791L626.989 33.8543Z" fill="#22A2F2"/>
<path d="M626.989 26.4051L626.989 22.6803L630.235 24.5397L633.481 26.4051L630.235 28.2645L626.989 30.1299L626.989 26.4051Z" fill="#F4F4F4"/>
<path d="M626.989 18.9554L626.989 15.2306L630.235 17.09L633.481 18.9554L630.235 20.8148L626.989 22.6802L626.989 18.9554Z" fill="#22A2F2"/>
<path d="M626.989 11.5052L626.989 7.7804L630.235 9.63981L633.481 11.5052L630.235 13.3646L626.989 15.23L626.989 11.5052Z" fill="#F4F4F4"/>
<path d="M633.481 48.7532L633.481 45.0284L636.733 46.8879L639.979 48.7532L636.733 50.6126L633.481 52.478L633.481 48.7532Z" fill="#22A2F2"/>
<path d="M633.481 41.304L633.481 37.5792L636.733 39.4386L639.979 41.304L636.733 43.1634L633.481 45.0288L633.481 41.304Z" fill="#F4F4F4"/>
<path d="M633.481 33.8543L633.481 30.1295L636.733 31.9889L639.979 33.8543L636.733 35.7137L633.481 37.5791L633.481 33.8543Z" fill="#22A2F2"/>
<path d="M633.481 26.4051L633.481 22.6803L636.733 24.5397L639.979 26.4051L636.733 28.2645L633.481 30.1299L633.481 26.4051Z" fill="#F4F4F4"/>
<path d="M633.481 18.9554L633.481 15.2306L636.733 17.09L639.979 18.9554L636.733 20.8148L633.481 22.6802L633.481 18.9554Z" fill="#22A2F2"/>
<path d="M633.481 11.5052L633.481 7.7804L636.733 9.63981L639.979 11.5052L636.733 13.3646L633.481 15.23L633.481 11.5052Z" fill="#F4F4F4"/>
<path d="M639.979 48.7532L639.979 45.0284L643.225 46.8879L646.471 48.7532L643.225 50.6126L639.979 52.478L639.979 48.7532Z" fill="#22A2F2"/>
<path d="M639.979 41.304L639.979 37.5792L643.225 39.4386L646.471 41.304L643.225 43.1634L639.979 45.0288L639.979 41.304Z" fill="#F4F4F4"/>
<path d="M639.979 33.8543L639.979 30.1295L643.225 31.9889L646.471 33.8543L643.225 35.7137L639.979 37.5791L639.979 33.8543Z" fill="#22A2F2"/>
<path d="M639.979 26.4051L639.979 22.6803L643.225 24.5397L646.471 26.4051L643.225 28.2645L639.979 30.1299L639.979 26.4051Z" fill="#F4F4F4"/>
<path d="M639.979 18.9554L639.979 15.2306L643.225 17.09L646.471 18.9554L643.225 20.8148L639.979 22.6802L639.979 18.9554Z" fill="#22A2F2"/>
<path d="M639.979 11.5052L639.979 7.7804L643.225 9.63981L646.471 11.5052L643.225 13.3646L639.979 15.23L639.979 11.5052Z" fill="#F4F4F4"/>
<path d="M646.471 48.7532L646.471 45.0284L649.723 46.8879L652.969 48.7532L649.723 50.6126L646.471 52.478L646.471 48.7532Z" fill="#22A2F2"/>
<path d="M646.471 41.304L646.471 37.5792L649.723 39.4386L652.969 41.304L649.723 43.1634L646.471 45.0288L646.471 41.304Z" fill="#F4F4F4"/>
<path d="M646.471 33.8543L646.471 30.1295L649.723 31.9889L652.969 33.8543L649.723 35.7137L646.471 37.5791L646.471 33.8543Z" fill="#22A2F2"/>
<path d="M646.471 26.4051L646.471 22.6803L649.723 24.5397L652.969 26.4051L649.723 28.2645L646.471 30.1299L646.471 26.4051Z" fill="#F4F4F4"/>
<path d="M646.471 18.9554L646.471 15.2306L649.723 17.09L652.969 18.9554L649.723 20.8148L646.471 22.6802L646.471 18.9554Z" fill="#22A2F2"/>
<path d="M646.471 11.5052L646.471 7.7804L649.723 9.63981L652.969 11.5052L649.723 13.3646L646.471 15.23L646.471 11.5052Z" fill="#F4F4F4"/>
<path d="M480 0.331108L480 59.9277L540 59.9277L540 0.331105L480 0.331108Z" fill="#001238"/>
<path d="M502.5 52.4302L502.5 37.537C499.74 37.537 497.502 39.7599 497.502 42.5014L497.502 52.4302L502.5 52.4302Z" fill="#22A2F2"/>
<path d="M492.54 52.4302L492.54 37.537C489.78 37.537 487.542 39.7599 487.542 42.5014L487.542 52.4302L492.54 52.4302Z" fill="#22A2F2"/>
<path d="M522.456 52.4302L522.456 37.537C519.696 37.537 517.458 39.7599 517.458 42.5014L517.458 52.4302L522.456 52.4302Z" fill="#22A2F2"/>
<path d="M512.497 52.4302L512.497 37.537C509.737 37.537 507.499 39.7599 507.499 42.5014L507.499 52.4302L512.497 52.4302Z" fill="#22A2F2"/>
<path d="M532.453 52.4302L532.453 37.537C529.693 37.537 527.455 39.7599 527.455 42.5014L527.455 52.4302L532.453 52.4302Z" fill="#22A2F2"/>
<path d="M502.5 7.78064L502.5 22.6738C499.74 22.6738 497.502 20.4509 497.502 17.7094L497.502 7.78064L502.5 7.78064Z" fill="#F4F4F4"/>
<path d="M492.54 7.78064L492.54 22.6738C489.78 22.6738 487.542 20.4509 487.542 17.7094L487.542 7.78064L492.54 7.78064Z" fill="#F4F4F4"/>
<path d="M522.456 7.78064L522.456 22.6738C519.696 22.6738 517.458 20.4509 517.458 17.7094L517.458 7.78064L522.456 7.78064Z" fill="#F4F4F4"/>
<path d="M512.497 7.78064L512.497 22.6738C509.737 22.6738 507.499 20.4509 507.499 17.7094L507.499 7.78064L512.497 7.78064Z" fill="#F4F4F4"/>
<path d="M532.453 7.78064L532.453 22.6738C529.693 22.6738 527.455 20.4509 527.455 17.7094L527.455 7.78064L532.453 7.78064Z" fill="#F4F4F4"/>
<path d="M360.001 0.331108L360.001 59.9277L420.001 59.9277L420.001 0.331105L360.001 0.331108Z" fill="#001238"/>
<path d="M411.877 24.9029C411.745 24.3665 411.595 23.8361 411.427 23.3116C411.217 24.3605 410.707 25.3617 409.885 26.1782C410.347 25.7193 410.875 25.3498 411.439 25.0876C411.583 25.0161 411.727 24.9565 411.877 24.9029Z" fill="#22A2F2"/>
<path d="M396.871 8.84729C396.337 8.68042 395.797 8.52547 395.257 8.40031C394.981 9.12143 394.561 9.80082 393.973 10.3789C394.435 9.92001 394.963 9.55052 395.527 9.2883C395.959 9.07971 396.409 8.93668 396.871 8.84729Z" fill="#22A2F2"/>
<path d="M401.929 34.0806C402.391 33.6217 402.919 33.2522 403.483 32.9899C405.571 31.9947 408.151 32.3582 409.885 34.0806C408.151 32.3582 407.785 29.7956 408.787 27.7216C409.057 27.1614 409.423 26.6429 409.885 26.178C407.689 28.3593 404.125 28.3593 401.929 26.178C404.125 28.3593 404.125 31.8993 401.929 34.0806Z" fill="#22A2F2"/>
<path d="M393.973 26.1782C393.511 26.637 393.139 27.1615 392.875 27.7158C391.873 29.7957 392.245 32.3583 393.973 34.0747L386.017 26.1722C388.219 28.3594 391.777 28.3594 393.973 26.1782Z" fill="#22A2F2"/>
<path d="M411.877 35.3502C411.151 35.076 410.467 34.6589 409.885 34.0748C410.707 34.8913 411.217 35.8925 411.427 36.9414C411.595 36.4229 411.751 35.8866 411.877 35.3502Z" fill="#22A2F2"/>
<path d="M383.137 8.84737C384.193 9.05596 385.201 9.56253 386.023 10.373C385.441 9.79496 385.015 9.12152 384.745 8.4004C384.199 8.53151 383.665 8.6805 383.137 8.84737Z" fill="#22A2F2"/>
<path d="M408.343 17.1913C407.623 16.1901 406.813 15.2246 405.907 14.3247C404.995 13.4189 404.023 12.6143 403.009 11.8932C404.023 13.9731 403.663 16.5477 401.923 18.27C402.385 17.8111 402.913 17.4416 403.477 17.1794C405.019 16.4583 406.813 16.4642 408.343 17.1913Z" fill="#22A2F2"/>
<path d="M376.969 11.9164C375.967 13.9964 376.339 16.559 378.067 18.2754L374.089 14.3241C374.995 13.4242 375.955 12.6197 376.969 11.9164Z" fill="#22A2F2"/>
<path d="M401.929 34.0805C401.467 34.5394 401.095 35.0638 400.831 35.6181C399.829 37.698 400.201 40.2607 401.929 41.9771L393.973 34.0745C396.175 36.2617 399.733 36.2617 401.929 34.0805Z" fill="#22A2F2"/>
<path d="M408.355 43.0557C407.629 44.0628 406.819 45.0283 405.913 45.9282L401.935 41.977C403.669 43.7053 406.255 44.0569 408.355 43.0557Z" fill="#22A2F2"/>
<path d="M393.973 18.2754C392.239 16.553 391.873 13.9904 392.875 11.9164C393.145 11.3562 393.511 10.8377 393.973 10.3729C391.777 12.5541 388.213 12.5541 386.017 10.3729C388.213 12.5541 388.213 16.0942 386.017 18.2754C386.479 17.8165 387.007 17.447 387.571 17.1848C389.665 16.1895 392.245 16.553 393.973 18.2754Z" fill="#22A2F2"/>
<path d="M393.973 26.1782C394.435 25.7193 394.963 25.3498 395.527 25.0876C397.615 24.0923 400.195 24.4559 401.929 26.1782C400.195 24.4559 399.829 21.8932 400.831 19.8193C401.101 19.2591 401.467 18.7406 401.929 18.2757C399.733 20.4569 396.169 20.4569 393.973 18.2757C396.169 20.4569 396.169 23.997 393.973 26.1782Z" fill="#22A2F2"/>
<path d="M386.023 18.2753C385.561 18.7342 385.189 19.2587 384.925 19.8129C383.923 21.8928 384.295 24.4555 386.023 26.1719L378.067 18.2694C380.263 20.4566 383.821 20.4625 386.023 18.2753Z" fill="#22A2F2"/>
<path d="M386.023 26.1721L393.979 34.0746C392.245 32.3523 389.671 31.9947 387.577 32.984C387.019 33.2522 386.491 33.6157 386.023 34.0806C388.219 31.8993 388.219 28.3593 386.023 26.1721Z" fill="#F4F4F4"/>
<path d="M386.023 49.8856C385.561 50.3445 385.189 50.869 384.925 51.4232C384.859 51.5663 384.793 51.7153 384.739 51.8643C384.205 51.7391 383.671 51.5841 383.137 51.4113C384.193 51.2027 385.201 50.6962 386.023 49.8856Z" fill="#F4F4F4"/>
<path d="M396.859 51.4114C396.331 51.5783 395.797 51.7332 395.257 51.8584C394.981 51.1373 394.561 50.4579 393.973 49.8798C394.801 50.6963 395.803 51.2088 396.859 51.4114Z" fill="#F4F4F4"/>
<path d="M374.089 14.3242L378.067 18.2754C376.333 16.553 373.759 16.1955 371.665 17.1848C372.379 16.1776 373.189 15.2241 374.089 14.3242Z" fill="#F4F4F4"/>
<path d="M370.111 34.0805C369.649 34.5394 369.277 35.0638 369.013 35.6181C368.809 36.0472 368.659 36.5001 368.569 36.959C368.401 36.4286 368.245 35.8863 368.119 35.3499C368.845 35.0817 369.529 34.6586 370.111 34.0805Z" fill="#F4F4F4"/>
<path d="M368.569 23.3112C368.779 24.3601 369.289 25.3614 370.111 26.1719C369.529 25.5938 368.851 25.1707 368.131 24.9025C368.251 24.3721 368.407 23.8417 368.569 23.3112Z" fill="#F4F4F4"/>
<path d="M378.066 41.9832C377.604 42.4421 377.232 42.9666 376.968 43.5208C376.236 45.0465 376.242 46.8284 376.974 48.3481C375.966 47.633 375 46.8284 374.088 45.9285C373.182 45.0286 372.366 44.0631 371.646 43.056C373.74 44.0631 376.332 43.7056 378.066 41.9832Z" fill="#F4F4F4"/>
<path d="M393.973 34.0749L401.929 41.9774C400.195 40.2551 397.621 39.8975 395.527 40.8868C394.969 41.155 394.441 41.5185 393.973 41.9834C396.175 39.8022 396.175 36.2621 393.973 34.0749Z" fill="#F4F4F4"/>
<path d="M386.023 34.0809C385.561 34.5398 385.189 35.0642 384.925 35.6185C383.923 37.6984 384.295 40.2611 386.023 41.9774C384.289 40.2551 381.715 39.8975 379.621 40.8868C379.063 41.155 378.535 41.5185 378.067 41.9834C380.263 39.8022 380.263 36.2621 378.067 34.0749C380.263 36.2621 383.821 36.2621 386.023 34.0809Z" fill="#F4F4F4"/>
<path d="M393.973 41.9832C393.511 42.4421 393.139 42.9666 392.875 43.5208C391.873 45.6007 392.245 48.1634 393.973 49.8798C392.239 48.1575 389.665 47.7999 387.571 48.7892C387.013 49.0574 386.485 49.4209 386.017 49.8857C388.213 47.7045 388.213 44.1645 386.017 41.9773C388.219 44.1585 391.777 44.1645 393.973 41.9832Z" fill="#F4F4F4"/>
<path d="M401.929 41.9772L405.907 45.9284C404.995 46.8343 404.023 47.6388 403.015 48.354C404.029 46.2741 403.669 43.7055 401.929 41.9772Z" fill="#F4F4F4"/>
<path d="M378.067 26.178C377.605 26.6369 377.233 27.1614 376.969 27.7157C375.967 29.7956 376.339 32.3582 378.067 34.0746C376.333 32.3523 373.759 31.9947 371.665 32.984C371.107 33.2522 370.579 33.6157 370.111 34.0806C372.307 31.8993 372.307 28.3593 370.111 26.1721C372.307 28.3593 375.865 28.3593 378.067 26.178Z" fill="#F4F4F4"/>
<path d="M378.067 18.2756L386.023 26.1781C384.289 24.4558 381.715 24.0982 379.621 25.0875C379.063 25.3557 378.535 25.7192 378.067 26.1841C380.263 23.9969 380.263 20.4568 378.067 18.2756Z" fill="#F4F4F4"/>
<path d="M420.001 0.331108L420.001 59.9277L480.001 59.9277L480.001 0.331105L420.001 0.331108Z" fill="#001238"/>
<path d="M420.001 0.331111L480.001 0.331108C480.001 1.94618 479.869 3.52549 479.611 5.06905C477.559 17.6797 467.527 27.6442 454.831 29.6824C454.609 29.7182 454.387 29.754 454.165 29.7838C452.803 29.9745 451.411 30.0698 450.001 30.0698C448.585 30.0698 447.187 29.9745 445.819 29.7778C445.597 29.754 445.369 29.7182 445.147 29.6765C432.463 27.6323 422.449 17.6797 420.391 5.08693C420.139 3.53742 420.001 1.95214 420.001 0.331111Z" fill="#22A2F2"/>
<path d="M420.001 59.9277C420.001 43.4731 433.435 30.1294 450.001 30.1294C466.567 30.1294 480.001 43.4731 480.001 59.9277L420.001 59.9277Z" fill="#F4F4F4"/>
<path d="M660.001 0.331123L660.001 59.9277L720.001 59.9277L720.001 0.331121L660.001 0.331123Z" fill="#001238"/>
<path d="M660.001 0.331122L720.001 0.33112C720.001 1.94619 719.869 3.52551 719.611 5.06906C717.559 17.6797 707.527 27.6442 694.831 29.6824C694.609 29.7182 694.387 29.754 694.165 29.7838C692.803 29.9745 691.411 30.0698 690.001 30.0698C688.585 30.0698 687.187 29.9745 685.819 29.7778C685.597 29.754 685.369 29.7182 685.147 29.6765C672.463 27.6323 662.449 17.6797 660.391 5.08694C660.139 3.53743 660.001 1.95215 660.001 0.331122Z" fill="#F4F4F4"/>
<path d="M660.001 59.9277C660.001 43.4731 673.435 30.1294 690.001 30.1294C706.567 30.1294 720.001 43.4731 720.001 59.9277L660.001 59.9277Z" fill="#22A2F2"/>
<path d="M693.301 0.331124L693.301 59.9277C704.347 59.9277 713.299 51.03 713.299 40.0642L713.299 0.331123L693.301 0.331124Z" fill="#001238"/>
<path d="M686.821 59.9277L686.821 0.331123C675.775 0.331124 666.823 9.22889 666.823 20.1947L666.823 59.9277L686.821 59.9277Z" fill="#001238"/>
<path d="M540 0.331108L540 59.9277L600 59.9277L600 0.331105L540 0.331108Z" fill="#001238"/>
<path d="M540 0.331111L600 0.331108C600 1.94618 599.868 3.52549 599.61 5.06905C597.558 17.6797 587.527 27.6442 574.831 29.6824C574.609 29.7182 574.386 29.754 574.164 29.7838C572.802 29.9745 571.41 30.0698 570 30.0698C568.584 30.0698 567.187 29.9745 565.819 29.7778C565.597 29.754 565.368 29.7182 565.146 29.6765C552.462 27.6323 542.449 17.6797 540.391 5.08693C540.139 3.53742 540 1.95214 540 0.331111Z" fill="#F4F4F4"/>
<path d="M540 59.9277C540 43.4731 553.434 30.1294 570 30.1294C586.566 30.1294 600 43.4731 600 59.9277L540 59.9277Z" fill="#22A2F2"/>
<path d="M573.295 0.331106L573.295 59.9277C584.341 59.9277 593.293 51.03 593.293 40.0642L593.293 0.331106L573.295 0.331106Z" fill="#001238"/>
<path d="M566.815 59.9277L566.815 0.331106C555.769 0.331106 546.817 9.22888 546.817 20.1947L546.817 59.9277L566.815 59.9277Z" fill="#001238"/>
<path d="M180 0.331108L180 59.9277L240 59.9277L240 0.331105L180 0.331108Z" fill="#001238"/>
<path d="M210.096 0.331106L240 0.331105L240 59.9277L216.6 59.9277C212.67 57.8001 210 53.6701 210 48.9143L222.606 48.9143C215.646 48.9143 210 43.3003 210 36.393L222.606 36.393C215.646 36.393 210 30.779 210 23.8658L222.606 23.8658C215.646 23.8658 210 18.2578 210 11.3446L222.606 11.3446C216.162 11.3446 210.84 6.53512 210.096 0.331106Z" fill="#22A2F2"/>
<path d="M180 0.331106L203.4 0.331105C207.33 2.4587 210 6.58875 210 11.3446L197.394 11.3446C204.348 11.3446 210 16.9586 210 23.8658L197.394 23.8658C204.348 23.8658 210 29.4798 210 36.393L197.394 36.393C204.348 36.393 210 42.0011 210 48.9143L197.394 48.9143C203.832 48.9143 209.16 53.7237 209.904 59.9277L180 59.9277L180 0.331106Z" fill="#F4F4F4"/>
<path d="M120 0.331108L120 59.9277L180 59.9277L180 0.331105L120 0.331108Z" fill="#001238"/>
<path d="M127.5 7.78085L140.202 7.78085L146.916 14.4497C148.944 16.47 149.976 19.1102 150 21.7622C150 21.7741 149.994 21.7801 150 21.792L150 21.9112C149.994 21.9172 150 21.9291 150 21.9351C149.976 24.5871 148.95 27.2272 146.916 29.2476L127.5 9.96209L127.5 7.78085Z" fill="#F4F4F4"/>
<path d="M159.792 7.78047L172.494 7.78047L172.494 9.95574L153.078 29.2412C151.044 27.2209 150.012 24.5808 149.994 21.9287C149.988 21.8691 149.988 21.8155 149.994 21.7618C150.012 19.1098 151.044 16.4697 153.078 14.4493L159.792 7.78047Z" fill="#22A2F2"/>
<path d="M146.916 29.2414C148.944 31.2617 149.976 33.9019 150 36.5539C149.994 36.6135 149.994 36.6671 150 36.7208C149.976 39.3728 148.95 42.013 146.916 44.0333L138.42 52.4722L127.5 52.4722L127.5 48.5269L146.916 29.2414Z" fill="#22A2F2"/>
<path d="M153.078 29.2414L172.494 48.5269L172.494 52.4722L161.574 52.4722L153.078 44.0333C151.05 42.0189 150.024 39.3967 149.994 36.7565C149.988 36.6731 149.988 36.5956 149.994 36.5122C150.024 33.884 151.056 31.2558 153.078 29.2414Z" fill="#F4F4F4"/>
<path d="M240 0.331108L240 59.9277L300 59.9277L300 0.331105L240 0.331108Z" fill="#001238"/>
<path d="M262.506 52.4302L262.506 37.537C259.746 37.537 257.508 39.7599 257.508 42.5014L257.508 52.4302L262.506 52.4302Z" fill="#22A2F2"/>
<path d="M252.54 52.4302L252.54 37.537C249.78 37.537 247.542 39.7599 247.542 42.5014L247.542 52.4302L252.54 52.4302Z" fill="#22A2F2"/>
<path d="M282.462 52.4302L282.462 37.537C279.702 37.537 277.464 39.7599 277.464 42.5014L277.464 52.4302L282.462 52.4302Z" fill="#22A2F2"/>
<path d="M272.502 52.4302L272.502 37.537C269.742 37.537 267.504 39.7599 267.504 42.5014L267.504 52.4302L272.502 52.4302Z" fill="#22A2F2"/>
<path d="M292.458 52.4302L292.458 37.537C289.698 37.537 287.46 39.7599 287.46 42.5014L287.46 52.4302L292.458 52.4302Z" fill="#22A2F2"/>
<path d="M262.506 7.78112L262.506 22.6743C259.746 22.6743 257.508 20.4514 257.508 17.7099L257.508 7.78112L262.506 7.78112Z" fill="#F4F4F4"/>
<path d="M252.54 7.78112L252.54 22.6743C249.78 22.6743 247.542 20.4514 247.542 17.7099L247.542 7.78112L252.54 7.78112Z" fill="#F4F4F4"/>
<path d="M282.462 7.78112L282.462 22.6743C279.702 22.6743 277.464 20.4514 277.464 17.7099L277.464 7.78112L282.462 7.78112Z" fill="#F4F4F4"/>
<path d="M272.502 7.78112L272.502 22.6743C269.742 22.6743 267.504 20.4514 267.504 17.7099L267.504 7.78112L272.502 7.78112Z" fill="#F4F4F4"/>
<path d="M292.458 7.78112L292.458 22.6743C289.698 22.6743 287.46 20.4514 287.46 17.7099L287.46 7.78112L292.458 7.78112Z" fill="#F4F4F4"/>
<path d="M-2.60819e-06 0.331108L0 59.9277L60 59.9277L60 0.331105L-2.60819e-06 0.331108Z" fill="#001238"/>
<path d="M22.5058 52.4302L22.5058 37.537C19.7458 37.537 17.5078 39.7599 17.5078 42.5014L17.5078 52.4302L22.5058 52.4302Z" fill="#22A2F2"/>
<path d="M12.54 52.4302L12.54 37.537C9.77999 37.537 7.54199 39.7599 7.54199 42.5014L7.54199 52.4302L12.54 52.4302Z" fill="#22A2F2"/>
<path d="M42.4619 52.4302L42.4619 37.537C39.7019 37.537 37.4639 39.7599 37.4639 42.5014L37.4639 52.4302L42.4619 52.4302Z" fill="#22A2F2"/>
<path d="M32.5019 52.4302L32.5019 37.537C29.7419 37.537 27.5039 39.7599 27.5039 42.5014L27.5039 52.4302L32.5019 52.4302Z" fill="#22A2F2"/>
<path d="M52.458 52.4302L52.458 37.537C49.698 37.537 47.46 39.7599 47.46 42.5014L47.46 52.4302L52.458 52.4302Z" fill="#22A2F2"/>
<path d="M22.5058 7.78112L22.5058 22.6743C19.7458 22.6743 17.5078 20.4514 17.5078 17.7099L17.5078 7.78112L22.5058 7.78112Z" fill="#F4F4F4"/>
<path d="M12.54 7.78112L12.54 22.6743C9.77999 22.6743 7.54199 20.4514 7.54199 17.7099L7.54199 7.78112L12.54 7.78112Z" fill="#F4F4F4"/>
<path d="M42.4619 7.78112L42.4619 22.6743C39.7019 22.6743 37.4639 20.4514 37.4639 17.7099L37.4639 7.78112L42.4619 7.78112Z" fill="#F4F4F4"/>
<path d="M32.5019 7.78112L32.5019 22.6743C29.7419 22.6743 27.5039 20.4514 27.5039 17.7099L27.5039 7.78112L32.5019 7.78112Z" fill="#F4F4F4"/>
<path d="M52.458 7.78112L52.458 22.6743C49.698 22.6743 47.46 20.4514 47.46 17.7099L47.46 7.78112L52.458 7.78112Z" fill="#F4F4F4"/>
<path d="M60 0.331108L60 59.9277L120 59.9277L120 0.331105L60 0.331108Z" fill="#001238"/>
<path d="M79.9199 0.33106L120 0.331058L120 40.1416L79.9199 0.33106Z" fill="#22A2F2"/>
<path d="M60 0.331106L80.076 0.331106L120 39.9807L120 59.9277L100.002 59.9277L60 20.2006L60 0.331106Z" fill="#F4F4F4"/>
<path d="M60 20.2006L100.002 59.9277L60 59.9277L60 20.2006Z" fill="#001238"/>
<path d="M300 0.331108L300 59.9277L360 59.9277L360 0.331105L300 0.331108Z" fill="#001238"/>
<path d="M300 0.331111L360 0.331108C360 1.94618 359.868 3.52549 359.61 5.06904C357.558 17.6797 347.526 27.6442 334.83 29.6824C334.608 29.7182 334.386 29.754 334.164 29.7838C332.802 29.9745 331.41 30.0698 330 30.0698C328.584 30.0698 327.186 29.9745 325.818 29.7778C325.596 29.754 325.368 29.7182 325.146 29.6765C312.462 27.6323 302.448 17.6797 300.39 5.08692C300.138 3.53741 300 1.95214 300 0.331111Z" fill="#F4F4F4"/>
<path d="M300 0.331111L317.106 0.33111L325.542 8.71039C328.47 11.6247 329.958 15.4389 329.994 19.265C329.994 19.2769 329.988 19.2888 329.994 19.3007L329.994 19.4735C329.982 19.4855 329.994 19.4974 329.994 19.5093C329.958 23.2162 328.566 26.9052 325.818 29.7778C325.734 29.8732 325.638 29.9745 325.542 30.0698L325.146 29.6765L300.39 5.08692L300 4.69954L300 0.331111Z" fill="#001238"/>
<path d="M342.876 0.33111L360 0.331109L360 4.68166L359.61 5.06904L334.83 29.6824L334.44 30.0698C334.344 29.9745 334.254 29.8791 334.164 29.7838C331.41 26.9112 330.018 23.2162 329.994 19.5093L329.994 19.3067C329.994 19.3067 329.988 19.3067 329.994 19.3007C329.988 19.2888 329.994 19.2769 329.994 19.265C330.018 15.4389 331.506 11.6247 334.44 8.71039L342.876 0.33111Z" fill="#001238"/>
<path d="M300 59.9277C300 43.4731 313.434 30.1294 330 30.1294C346.566 30.1294 360 43.4731 360 59.9277L300 59.9277Z" fill="#22A2F2"/>
<path d="M300 59.8979L317.106 59.8979L325.542 51.5187C328.47 48.6044 329.958 44.7902 329.994 40.9641C329.994 40.9522 329.988 40.9403 329.994 40.9283L329.994 40.7555C329.982 40.7436 329.994 40.7317 329.994 40.7198C329.958 37.0128 328.566 33.3238 325.818 30.4513C325.734 30.3559 325.638 30.2546 325.542 30.1592L325.146 30.5526L300.39 55.1421L300 55.5295L300 59.8979Z" fill="#001238"/>
<path d="M342.876 59.8979L360 59.8979L360 55.5474L359.61 55.16L334.83 30.5466L334.44 30.1592C334.344 30.2546 334.254 30.3499 334.164 30.4453C331.41 33.3179 330.018 37.0128 329.994 40.7198L329.994 40.9224C329.994 40.9224 329.988 40.9224 329.994 40.9283C329.988 40.9403 329.994 40.9522 329.994 40.9641C330.018 44.7902 331.506 48.6044 334.44 51.5187L342.876 59.8979Z" fill="#001238"/>
<path d="M1020 1.14441e-05L1020 59.5908L1080 59.5908L1080 8.82456e-06L1020 1.14441e-05Z" fill="#001238"/>
<path d="M1059 43.2035L1050 43.2035C1050 48.1376 1054.03 52.1421 1059 52.1421L1072.5 52.1421L1072.5 43.2035L1072.5 34.2649L1072.5 25.3262L1072.5 16.3876L1072.5 7.44899L1050 7.44899C1050 12.3831 1054.03 16.3876 1059 16.3876L1050 16.3876C1050 21.3217 1054.03 25.3262 1059 25.3262L1050 25.3262C1050 30.2603 1054.03 34.2649 1059 34.2649L1050 34.2649C1050 39.199 1054.03 43.2035 1059 43.2035Z" fill="#22A2F2"/>
<path d="M1041 16.3876L1050 16.3876C1050 11.4535 1045.97 7.44899 1041 7.44899L1027.5 7.44899L1027.5 16.3876L1027.5 25.3262L1027.5 34.2649L1027.5 43.2035L1027.5 52.1421L1050 52.1421C1050 47.208 1045.97 43.2035 1041 43.2035L1050 43.2035C1050 38.2694 1045.97 34.2649 1041 34.2649L1050 34.2649C1050 29.3307 1045.97 25.3262 1041 25.3262L1050 25.3262C1050 20.3921 1045.97 16.3876 1041 16.3876Z" fill="#F4F4F4"/>
<path d="M780 0.00587082L780 59.5967L840 59.5967L840 0.0058682L780 0.00587082Z" fill="#001238"/>
<path d="M819 43.2088L810 43.2088C810 48.143 814.032 52.1475 819 52.1475L832.5 52.1475L832.5 43.2088L832.5 34.2702L832.5 25.3316L832.5 16.393L832.5 7.45436L810 7.45436C810 12.3885 814.032 16.393 819 16.393L810 16.393C810 21.3271 814.032 25.3316 819 25.3316L810 25.3316C810 30.2657 814.032 34.2702 819 34.2702L810 34.2702C810 39.2043 814.032 43.2088 819 43.2088Z" fill="#22A2F2"/>
<path d="M801 16.393L810 16.393C810 11.4589 805.968 7.45436 801 7.45436L787.5 7.45436L787.5 16.393L787.5 25.3316L787.5 34.2702L787.5 43.2088L787.5 52.1475L810 52.1475C810 47.2133 805.968 43.2088 801 43.2088L810 43.2088C810 38.2747 805.968 34.2702 801 34.2702L810 34.2702C810 29.3361 805.968 25.3316 801 25.3316L810 25.3316C810 20.3975 805.968 16.393 801 16.393Z" fill="#F4F4F4"/>
<path d="M900 0.00587082L900 59.5967L960 59.5967L960 0.0058682L900 0.00587082Z" fill="#001238"/>
<path d="M951.87 24.5747C951.738 24.0384 951.588 23.508 951.42 22.9835C951.21 24.0324 950.7 25.0336 949.878 25.8501C950.34 25.3912 950.868 25.0217 951.432 24.7595C951.576 24.688 951.726 24.6284 951.87 24.5747Z" fill="#22A2F2"/>
<path d="M936.87 8.5211C936.336 8.35423 935.796 8.19928 935.256 8.07413C934.98 8.79525 934.56 9.47465 933.972 10.0527C934.434 9.59384 934.962 9.22434 935.526 8.96212C935.952 8.75353 936.408 8.6105 936.87 8.5211Z" fill="#22A2F2"/>
<path d="M941.928 33.752C942.39 33.2931 942.918 32.9236 943.482 32.6614C945.57 31.6663 948.15 32.0298 949.884 33.752C948.15 32.0298 947.784 29.4674 948.786 27.3936C949.056 26.8335 949.422 26.315 949.884 25.8502C947.688 28.0312 944.124 28.0312 941.928 25.8502C944.124 28.0312 944.124 31.5709 941.928 33.752Z" fill="#22A2F2"/>
<path d="M933.972 25.8503C933.51 26.3092 933.138 26.8336 932.874 27.3878C931.872 29.4675 932.244 32.0299 933.972 33.7461L926.016 25.8444C928.212 28.0313 931.776 28.0313 933.972 25.8503Z" fill="#22A2F2"/>
<path d="M951.876 35.0216C951.15 34.7474 950.466 34.3302 949.884 33.7462C950.706 34.5627 951.216 35.5639 951.426 36.6128C951.594 36.0943 951.744 35.5579 951.876 35.0216Z" fill="#22A2F2"/>
<path d="M923.13 8.5212C924.186 8.72979 925.194 9.23636 926.016 10.0469C925.434 9.46879 925.008 8.79535 924.738 8.07423C924.198 8.20534 923.664 8.35433 923.13 8.5212Z" fill="#22A2F2"/>
<path d="M948.342 16.8643C947.622 15.8632 946.812 14.8978 945.906 13.998C944.994 13.0922 944.022 12.2877 943.008 11.5667C944.022 13.6464 943.662 16.2207 941.922 17.9429C942.384 17.484 942.912 17.1146 943.476 16.8524C945.012 16.1313 946.806 16.1373 948.342 16.8643Z" fill="#22A2F2"/>
<path d="M916.962 11.5904C915.96 13.6701 916.332 16.2325 918.06 17.9487L914.082 13.9979C914.988 13.098 915.954 12.2936 916.962 11.5904Z" fill="#22A2F2"/>
<path d="M941.928 33.7522C941.466 34.211 941.094 34.7354 940.83 35.2896C939.828 37.3693 940.2 39.9317 941.928 41.6479L933.972 33.7462C936.168 35.9332 939.726 35.9332 941.928 33.7522Z" fill="#22A2F2"/>
<path d="M948.348 42.7264C947.622 43.7334 946.812 44.6988 945.906 45.5986L941.928 41.6478C943.668 43.3759 946.254 43.7275 948.348 42.7264Z" fill="#22A2F2"/>
<path d="M933.972 17.9487C932.238 16.2266 931.872 13.6642 932.874 11.5904C933.144 11.0302 933.51 10.5118 933.972 10.047C931.776 12.228 928.212 12.228 926.016 10.047C928.212 12.228 928.212 15.7677 926.016 17.9487C926.478 17.4899 927.006 17.1204 927.57 16.8582C929.658 15.8631 932.238 16.2266 933.972 17.9487Z" fill="#22A2F2"/>
<path d="M933.972 25.8501C934.434 25.3912 934.962 25.0218 935.526 24.7596C937.614 23.7644 940.194 24.1279 941.928 25.8501C940.194 24.1279 939.828 21.5655 940.83 19.4918C941.1 18.9316 941.466 18.4132 941.928 17.9484C939.732 20.1294 936.168 20.1294 933.972 17.9484C936.168 20.1294 936.168 23.6691 933.972 25.8501Z" fill="#22A2F2"/>
<path d="M926.016 17.9485C925.554 18.4073 925.182 18.9317 924.918 19.4859C923.916 21.5656 924.288 24.128 926.016 25.8442L918.06 17.9425C920.256 20.1295 923.82 20.1354 926.016 17.9485Z" fill="#22A2F2"/>
<path d="M926.016 25.8443L933.972 33.746C932.238 32.0238 929.664 31.6663 927.57 32.6555C927.012 32.9236 926.484 33.2871 926.016 33.752C928.212 31.5709 928.212 28.0312 926.016 25.8443Z" fill="#F4F4F4"/>
<path d="M926.016 49.5556C925.554 50.0145 925.182 50.5389 924.918 51.0932C924.852 51.2362 924.786 51.3852 924.732 51.5342C924.198 51.409 923.664 51.2541 923.13 51.0812C924.186 50.8727 925.2 50.3661 926.016 49.5556Z" fill="#F4F4F4"/>
<path d="M936.858 51.0809C936.33 51.2477 935.796 51.4027 935.256 51.5278C934.98 50.8067 934.56 50.1273 933.972 49.5492C934.794 50.3657 935.802 50.8782 936.858 51.0809Z" fill="#F4F4F4"/>
<path d="M914.088 13.9979L918.066 17.9487C916.332 16.2266 913.758 15.869 911.664 16.8582C912.372 15.8511 913.182 14.8977 914.088 13.9979Z" fill="#F4F4F4"/>
<path d="M910.104 33.7519C909.642 34.2107 909.27 34.7352 909.006 35.2894C908.802 35.7185 908.652 36.1715 908.562 36.6304C908.394 36.1 908.238 35.5576 908.112 35.0213C908.838 34.7531 909.522 34.3299 910.104 33.7519Z" fill="#F4F4F4"/>
<path d="M908.568 22.9836C908.778 24.0325 909.288 25.0337 910.11 25.8442C909.528 25.2662 908.85 24.843 908.13 24.5748C908.25 24.0444 908.4 23.514 908.568 22.9836Z" fill="#F4F4F4"/>
<path d="M918.06 41.6538C917.598 42.1126 917.226 42.637 916.962 43.1912C916.23 44.7167 916.236 46.4985 916.968 48.0181C915.96 47.303 914.994 46.4985 914.082 45.5987C913.176 44.6989 912.36 43.7335 911.64 42.7264C913.734 43.7335 916.326 43.3759 918.06 41.6538Z" fill="#F4F4F4"/>
<path d="M933.972 33.7461L941.928 41.6478C940.194 39.9257 937.62 39.5681 935.526 40.5573C934.968 40.8255 934.44 41.189 933.972 41.6538C936.168 39.4728 936.168 35.9331 933.972 33.7461Z" fill="#F4F4F4"/>
<path d="M926.016 33.7521C925.554 34.2109 925.182 34.7353 924.918 35.2895C923.916 37.3692 924.288 39.9316 926.016 41.6478C924.282 39.9257 921.708 39.5681 919.614 40.5573C919.056 40.8255 918.528 41.189 918.06 41.6538C920.256 39.4728 920.256 35.9331 918.06 33.7461C920.256 35.9331 923.82 35.9331 926.016 33.7521Z" fill="#F4F4F4"/>
<path d="M933.972 41.6539C933.51 42.1128 933.138 42.6372 932.874 43.1914C931.872 45.2711 932.244 47.8335 933.972 49.5497C932.238 47.8275 929.664 47.47 927.57 48.4592C927.012 48.7274 926.484 49.0909 926.016 49.5557C928.212 47.3746 928.212 43.8349 926.016 41.648C928.212 43.829 931.776 43.8349 933.972 41.6539Z" fill="#F4F4F4"/>
<path d="M941.928 41.6482L945.906 45.5991C944.994 46.5048 944.022 47.3093 943.014 48.0244C944.022 45.9447 943.668 43.3763 941.928 41.6482Z" fill="#F4F4F4"/>
<path d="M918.06 25.8502C917.598 26.3091 917.226 26.8335 916.962 27.3877C915.96 29.4674 916.332 32.0298 918.06 33.746C916.326 32.0238 913.752 31.6663 911.658 32.6555C911.1 32.9236 910.572 33.2871 910.104 33.752C912.3 31.5709 912.3 28.0312 910.104 25.8443C912.306 28.0312 915.864 28.0312 918.06 25.8502Z" fill="#F4F4F4"/>
<path d="M918.06 17.9487L926.016 25.8505C924.282 24.1283 921.708 23.7708 919.614 24.76C919.056 25.0281 918.528 25.3916 918.06 25.8564C920.256 23.6695 920.256 20.1298 918.06 17.9487Z" fill="#F4F4F4"/>
<path d="M720 0.00587082L720 59.5967L780 59.5967L780 0.0058682L720 0.00587082Z" fill="#001238"/>
<path d="M769.488 25.0819L769.488 34.5151L780 34.5151L780 25.0819L769.488 25.0819Z" fill="#F4F4F4"/>
<path d="M769.488 25.0813L751.506 25.0813C751.506 30.2955 755.76 34.5145 761.004 34.5145L769.488 34.5145L769.488 52.1475L750 40.9742L730.512 29.8009L750 18.6276L769.488 7.45436L769.488 25.0813Z" fill="#22A2F2"/>
<path d="M960 1.14441e-05L960 59.5908L1020 59.5908L1020 8.82456e-06L960 1.14441e-05Z" fill="#001238"/>
<path d="M967.5 7.45436L1012.5 7.45436L1012.5 22.3521L975 22.3521C975 30.5756 981.72 37.2498 990 37.2498L1012.5 37.2498L1012.5 52.1475L967.5 52.1475L967.5 7.45436Z" fill="#22A2F2"/>
<path d="M1012.5 22.3464L1012.5 37.2441L1020 37.2441L1020 22.3464L1012.5 22.3464Z" fill="#F4F4F4"/>
<path d="M840 0.00589752L840 59.5967L900 59.5967L900 0.0058949L840 0.00589752Z" fill="#001238"/>
<path d="M840 0.00587845L840 29.8013L900 29.8013L900 0.00587583L840 0.00587845Z" fill="#22A2F2"/>
<path d="M1140.09 0.331348L1140.09 59.8804L1199.84 59.8804L1199.84 0.331346L1140.09 0.331348Z" fill="#001238"/>
<path d="M1156.52 39.038L1156.52 30.1056C1151.58 30.1056 1147.56 34.1073 1147.56 39.038L1147.56 52.4365L1156.52 52.4365L1165.48 52.4365L1174.45 52.4365L1183.41 52.4365L1192.37 52.4365L1192.37 30.1056C1187.42 30.1056 1183.41 34.1073 1183.41 39.038L1183.41 30.1056C1178.46 30.1056 1174.45 34.1073 1174.45 39.038L1174.45 30.1056C1169.5 30.1056 1165.48 34.1073 1165.48 39.038L1165.48 30.1056C1160.54 30.1056 1156.52 34.1073 1156.52 39.038Z" fill="#22A2F2"/>
<path d="M1080 0.600731L1080 59.8804L1139.74 59.8804L1139.74 0.600728L1080 0.600731Z" fill="#001238"/>
<path d="M1139.74 30.2406L1139.74 59.8804L1124.79 45.0605L1109.84 30.2406L1124.79 15.4206L1139.74 0.600731L1139.74 30.2406Z" fill="#F4F4F4"/>
<path d="M1080 30.2406L1080 0.600733L1094.93 15.4206L1109.87 30.2406L1094.93 45.0605L1080 59.8804L1080 30.2406Z" fill="#22A2F2"/>
<path d="M1200.12 0.600758L1200.12 59.8804L1259.86 59.8804L1259.86 0.600755L1200.12 0.600758Z" fill="#001238"/>
<path d="M1200.12 0.600914L1217.86 0.600914L1225.37 8.04643C1228.12 10.7851 1229.65 14.2886 1229.93 17.8809C1229.97 18.2484 1229.98 18.6219 1229.99 18.9894C1229.99 19.0013 1229.98 19.0132 1229.99 19.0309L1229.99 19.2088C1229.97 19.2206 1229.99 19.2325 1229.99 19.2444C1229.98 19.6178 1229.97 19.9913 1229.93 20.3647C1229.66 23.8267 1228.23 27.2056 1225.65 29.891C1225.57 29.9917 1225.46 30.0984 1225.37 30.1992L1200.12 5.12989L1200.12 0.600914Z" fill="#22A2F2"/>
<path d="M1225.37 30.2821C1225.46 30.3828 1225.57 30.4955 1225.65 30.5844C1228.23 33.2816 1229.66 36.6546 1229.93 40.1166C1229.97 40.49 1229.98 40.8635 1229.99 41.2369C1229.99 41.2488 1229.97 41.2606 1229.99 41.2784L1229.99 41.4563C1229.98 41.4681 1229.99 41.48 1229.99 41.4978C1229.98 41.8653 1229.97 42.2388 1229.93 42.6063C1229.65 46.1986 1228.12 49.6961 1225.37 52.4408L1217.87 59.8804L1200.12 59.8804L1200.12 55.3573L1224.96 30.6911L1225.37 30.2821Z" fill="#22A2F2"/>
</svg>
